<?xml version="1.0" encoding="UTF-8"?>
<!-- Generator: visioncortex VTracer 0.6.12 -->
<svg version="1.1" xmlns="http://www.w3.org/2000/svg" width="305" height="283">
<path d="M0,0 L3,0 L3,3 L0,3 Z " fill="#000000" transform="translate(13,11)"/>
<path d="M0,0 L4,0 L4,3 L0,3 Z " fill="#000000" transform="translate(58,11)"/>
<path d="M0,0 L4,0 L4,3 L0,3 Z " fill="#000000" transform="translate(107,11)"/>
<path d="M0,0 L3,0 L3,3 L0,3 Z " fill="#000000" transform="translate(153,11)"/>
<path d="M0,0 L3,0 L3,3 L0,3 Z " fill="#000000" transform="translate(199,11)"/>
<path d="M0,0 L4,0 L4,3 L0,3 Z " fill="#000000" transform="translate(244,11)"/>
<path d="M0,0 L3,0 L3,3 L0,3 Z " fill="#000000" transform="translate(290,11)"/>
<path d="M0,0 L3,0 L3,3 L0,3 Z " fill="#000000" transform="translate(13,53)"/>
<path d="M0,0 L190,0 L190,176 L0,176 Z M4,3 L4,18 L7,18 L7,22 L4,22 L4,40 L7,40 L7,43 L4,43 L4,64 L7,64 L7,67 L4,67 L4,85 L7,85 L7,88 L4,88 L4,106 L7,106 L7,109 L4,109 L4,127 L7,127 L7,130 L4,130 L4,148 L7,148 L7,151 L4,151 L4,170 L7,170 L7,173 L26,173 L26,170 L30,170 L30,173 L49,173 L49,170 L53,170 L53,173 L72,173 L72,170 L75,170 L75,173 L95,173 L95,154 L92,154 L92,151 L95,151 L95,133 L92,133 L92,130 L95,130 L95,112 L92,112 L92,109 L95,109 L95,91 L92,91 L92,88 L95,88 L95,70 L92,70 L92,67 L95,67 L95,49 L92,49 L92,46 L95,46 L95,28 L92,28 L92,25 L95,25 L95,6 L92,6 L92,3 L72,3 L72,6 L69,6 L69,3 L46,3 L46,6 L43,6 L43,3 L23,3 L23,6 L20,6 L20,3 Z M98,3 L98,173 L141,173 L141,3 Z M144,3 L144,173 L186,173 L186,3 Z " fill="#000000" transform="translate(58,53)"/>
<path d="M0,0 L3,0 L3,3 L0,3 Z " fill="#000000" transform="translate(290,53)"/>
<path d="M0,0 L3,0 L3,3 L0,3 Z " fill="#000000" transform="translate(75,59)"/>
<path d="M0,0 L4,0 L4,3 L0,3 Z " fill="#000000" transform="translate(97,59)"/>
<path d="M0,0 L3,0 L3,3 L0,3 Z " fill="#000000" transform="translate(124,59)"/>
<path d="M0,0 L4,0 L4,3 L0,3 Z " fill="#000000" transform="translate(146,59)"/>
<path d="M0,0 L4,0 L4,3 L0,3 Z " fill="#000000" transform="translate(71,62)"/>
<path d="M0,0 L3,0 L3,3 L0,3 Z " fill="#000000" transform="translate(94,62)"/>
<path d="M0,0 L4,0 L4,3 L0,3 Z " fill="#000000" transform="translate(120,62)"/>
<path d="M0,0 L3,0 L3,3 L0,3 Z " fill="#000000" transform="translate(143,62)"/>
<path d="M0,0 L3,0 L3,3 L0,3 Z " fill="#000000" transform="translate(68,65)"/>
<path d="M0,0 L3,0 L3,3 L0,3 Z " fill="#000000" transform="translate(91,65)"/>
<path d="M0,0 L3,0 L3,3 L0,3 Z " fill="#000000" transform="translate(117,65)"/>
<path d="M0,0 L3,0 L3,3 L0,3 Z " fill="#000000" transform="translate(140,65)"/>
<path d="M0,0 L3,0 L3,3 L0,3 Z " fill="#000000" transform="translate(65,68)"/>
<path d="M0,0 L3,0 L3,3 L0,3 Z " fill="#000000" transform="translate(88,68)"/>
<path d="M0,0 L3,0 L3,3 L0,3 Z " fill="#000000" transform="translate(114,68)"/>
<path d="M0,0 L3,0 L3,3 L0,3 Z " fill="#000000" transform="translate(137,68)"/>
<path d="M0,0 L4,0 L4,4 L0,4 Z " fill="#000000" transform="translate(84,71)"/>
<path d="M0,0 L3,0 L3,4 L0,4 Z " fill="#000000" transform="translate(111,71)"/>
<path d="M0,0 L4,0 L4,4 L0,4 Z " fill="#000000" transform="translate(133,71)"/>
<path d="M0,0 L3,0 L3,3 L0,3 Z " fill="#000000" transform="translate(81,75)"/>
<path d="M0,0 L4,0 L4,3 L0,3 Z " fill="#000000" transform="translate(107,75)"/>
<path d="M0,0 L3,0 L3,3 L0,3 Z " fill="#000000" transform="translate(130,75)"/>
<path d="M0,0 L3,0 L3,3 L0,3 Z " fill="#000000" transform="translate(78,78)"/>
<path d="M0,0 L3,0 L3,3 L0,3 Z " fill="#000000" transform="translate(104,78)"/>
<path d="M0,0 L3,0 L3,3 L0,3 Z " fill="#000000" transform="translate(127,78)"/>
<path d="M0,0 L3,0 L3,3 L0,3 Z " fill="#000000" transform="translate(75,81)"/>
<path d="M0,0 L3,0 L3,3 L0,3 Z " fill="#000000" transform="translate(101,81)"/>
<path d="M0,0 L3,0 L3,3 L0,3 Z " fill="#000000" transform="translate(124,81)"/>
<path d="M0,0 L4,0 L4,3 L0,3 Z " fill="#000000" transform="translate(146,81)"/>
<path d="M0,0 L4,0 L4,3 L0,3 Z " fill="#000000" transform="translate(71,84)"/>
<path d="M0,0 L4,0 L4,3 L0,3 Z " fill="#000000" transform="translate(97,84)"/>
<path d="M0,0 L4,0 L4,3 L0,3 Z " fill="#000000" transform="translate(120,84)"/>
<path d="M0,0 L3,0 L3,3 L0,3 Z " fill="#000000" transform="translate(143,84)"/>
<path d="M0,0 L3,0 L3,3 L0,3 Z " fill="#000000" transform="translate(68,87)"/>
<path d="M0,0 L3,0 L3,3 L0,3 Z " fill="#000000" transform="translate(94,87)"/>
<path d="M0,0 L3,0 L3,3 L0,3 Z " fill="#000000" transform="translate(117,87)"/>
<path d="M0,0 L3,0 L3,3 L0,3 Z " fill="#000000" transform="translate(140,87)"/>
<path d="M0,0 L3,0 L3,3 L0,3 Z " fill="#000000" transform="translate(65,90)"/>
<path d="M0,0 L3,0 L3,3 L0,3 Z " fill="#000000" transform="translate(91,90)"/>
<path d="M0,0 L3,0 L3,3 L0,3 Z " fill="#000000" transform="translate(114,90)"/>
<path d="M0,0 L3,0 L3,3 L0,3 Z " fill="#000000" transform="translate(137,90)"/>
<path d="M0,0 L3,0 L3,3 L0,3 Z " fill="#000000" transform="translate(88,93)"/>
<path d="M0,0 L3,0 L3,3 L0,3 Z " fill="#000000" transform="translate(111,93)"/>
<path d="M0,0 L4,0 L4,3 L0,3 Z " fill="#000000" transform="translate(133,93)"/>
<path d="M0,0 L3,0 L3,3 L0,3 Z " fill="#000000" transform="translate(13,96)"/>
<path d="M0,0 L4,0 L4,3 L0,3 Z " fill="#000000" transform="translate(84,96)"/>
<path d="M0,0 L4,0 L4,3 L0,3 Z " fill="#000000" transform="translate(107,96)"/>
<path d="M0,0 L3,0 L3,3 L0,3 Z " fill="#000000" transform="translate(130,96)"/>
<path d="M0,0 L3,0 L3,3 L0,3 Z " fill="#000000" transform="translate(290,96)"/>
<path d="M0,0 L3,0 L3,3 L0,3 Z " fill="#000000" transform="translate(81,99)"/>
<path d="M0,0 L3,0 L3,3 L0,3 Z " fill="#000000" transform="translate(104,99)"/>
<path d="M0,0 L3,0 L3,3 L0,3 Z " fill="#000000" transform="translate(127,99)"/>
<path d="M0,0 L3,0 L3,3 L0,3 Z " fill="#000000" transform="translate(78,102)"/>
<path d="M0,0 L3,0 L3,3 L0,3 Z " fill="#000000" transform="translate(101,102)"/>
<path d="M0,0 L3,0 L3,3 L0,3 Z " fill="#000000" transform="translate(124,102)"/>
<path d="M0,0 L4,0 L4,3 L0,3 Z " fill="#000000" transform="translate(146,102)"/>
<path d="M0,0 L3,0 L3,3 L0,3 Z " fill="#000000" transform="translate(75,105)"/>
<path d="M0,0 L4,0 L4,3 L0,3 Z " fill="#000000" transform="translate(97,105)"/>
<path d="M0,0 L4,0 L4,3 L0,3 Z " fill="#000000" transform="translate(120,105)"/>
<path d="M0,0 L3,0 L3,3 L0,3 Z " fill="#000000" transform="translate(143,105)"/>
<path d="M0,0 L4,0 L4,3 L0,3 Z " fill="#000000" transform="translate(71,108)"/>
<path d="M0,0 L3,0 L3,3 L0,3 Z " fill="#000000" transform="translate(94,108)"/>
<path d="M0,0 L3,0 L3,3 L0,3 Z " fill="#000000" transform="translate(117,108)"/>
<path d="M0,0 L3,0 L3,3 L0,3 Z " fill="#000000" transform="translate(140,108)"/>
<path d="M0,0 L3,0 L3,3 L0,3 Z " fill="#000000" transform="translate(68,111)"/>
<path d="M0,0 L3,0 L3,3 L0,3 Z " fill="#000000" transform="translate(91,111)"/>
<path d="M0,0 L3,0 L3,3 L0,3 Z " fill="#000000" transform="translate(114,111)"/>
<path d="M0,0 L3,0 L3,3 L0,3 Z " fill="#000000" transform="translate(137,111)"/>
<path d="M0,0 L3,0 L3,3 L0,3 Z " fill="#000000" transform="translate(65,114)"/>
<path d="M0,0 L3,0 L3,3 L0,3 Z " fill="#000000" transform="translate(88,114)"/>
<path d="M0,0 L3,0 L3,3 L0,3 Z " fill="#000000" transform="translate(111,114)"/>
<path d="M0,0 L4,0 L4,3 L0,3 Z " fill="#000000" transform="translate(133,114)"/>
<path d="M0,0 L4,0 L4,3 L0,3 Z " fill="#000000" transform="translate(84,117)"/>
<path d="M0,0 L4,0 L4,3 L0,3 Z " fill="#000000" transform="translate(107,117)"/>
<path d="M0,0 L3,0 L3,3 L0,3 Z " fill="#000000" transform="translate(130,117)"/>
<path d="M0,0 L3,0 L3,3 L0,3 Z " fill="#000000" transform="translate(81,120)"/>
<path d="M0,0 L3,0 L3,3 L0,3 Z " fill="#000000" transform="translate(104,120)"/>
<path d="M0,0 L3,0 L3,3 L0,3 Z " fill="#000000" transform="translate(127,120)"/>
<path d="M0,0 L3,0 L3,3 L0,3 Z " fill="#000000" transform="translate(78,123)"/>
<path d="M0,0 L3,0 L3,3 L0,3 Z " fill="#000000" transform="translate(101,123)"/>
<path d="M0,0 L3,0 L3,3 L0,3 Z " fill="#000000" transform="translate(124,123)"/>
<path d="M0,0 L4,0 L4,3 L0,3 Z " fill="#000000" transform="translate(146,123)"/>
<path d="M0,0 L3,0 L3,3 L0,3 Z " fill="#000000" transform="translate(75,126)"/>
<path d="M0,0 L4,0 L4,3 L0,3 Z " fill="#000000" transform="translate(97,126)"/>
<path d="M0,0 L4,0 L4,3 L0,3 Z " fill="#000000" transform="translate(120,126)"/>
<path d="M0,0 L3,0 L3,3 L0,3 Z " fill="#000000" transform="translate(143,126)"/>
<path d="M0,0 L4,0 L4,3 L0,3 Z " fill="#000000" transform="translate(71,129)"/>
<path d="M0,0 L3,0 L3,3 L0,3 Z " fill="#000000" transform="translate(94,129)"/>
<path d="M0,0 L3,0 L3,3 L0,3 Z " fill="#000000" transform="translate(117,129)"/>
<path d="M0,0 L3,0 L3,3 L0,3 Z " fill="#000000" transform="translate(140,129)"/>
<path d="M0,0 L3,0 L3,3 L0,3 Z " fill="#000000" transform="translate(68,132)"/>
<path d="M0,0 L3,0 L3,3 L0,3 Z " fill="#000000" transform="translate(91,132)"/>
<path d="M0,0 L3,0 L3,3 L0,3 Z " fill="#000000" transform="translate(114,132)"/>
<path d="M0,0 L3,0 L3,3 L0,3 Z " fill="#000000" transform="translate(137,132)"/>
<path d="M0,0 L3,0 L3,3 L0,3 Z " fill="#000000" transform="translate(65,135)"/>
<path d="M0,0 L3,0 L3,3 L0,3 Z " fill="#000000" transform="translate(88,135)"/>
<path d="M0,0 L3,0 L3,3 L0,3 Z " fill="#000000" transform="translate(111,135)"/>
<path d="M0,0 L4,0 L4,3 L0,3 Z " fill="#000000" transform="translate(133,135)"/>
<path d="M0,0 L4,0 L4,3 L0,3 Z " fill="#000000" transform="translate(84,138)"/>
<path d="M0,0 L4,0 L4,3 L0,3 Z " fill="#000000" transform="translate(107,138)"/>
<path d="M0,0 L3,0 L3,3 L0,3 Z " fill="#000000" transform="translate(130,138)"/>
<path d="M0,0 L3,0 L3,3 L0,3 Z " fill="#000000" transform="translate(290,138)"/>
<path d="M0,0 L3,0 L3,3 L0,3 Z " fill="#000000" transform="translate(13,141)"/>
<path d="M0,0 L3,0 L3,3 L0,3 Z " fill="#000000" transform="translate(81,141)"/>
<path d="M0,0 L3,0 L3,3 L0,3 Z " fill="#000000" transform="translate(104,141)"/>
<path d="M0,0 L3,0 L3,3 L0,3 Z " fill="#000000" transform="translate(127,141)"/>
<path d="M0,0 L3,0 L3,3 L0,3 Z " fill="#000000" transform="translate(78,144)"/>
<path d="M0,0 L3,0 L3,3 L0,3 Z " fill="#000000" transform="translate(101,144)"/>
<path d="M0,0 L3,0 L3,3 L0,3 Z " fill="#000000" transform="translate(124,144)"/>
<path d="M0,0 L4,0 L4,3 L0,3 Z " fill="#000000" transform="translate(146,144)"/>
<path d="M0,0 L3,0 L3,3 L0,3 Z " fill="#000000" transform="translate(75,147)"/>
<path d="M0,0 L4,0 L4,3 L0,3 Z " fill="#000000" transform="translate(97,147)"/>
<path d="M0,0 L4,0 L4,3 L0,3 Z " fill="#000000" transform="translate(120,147)"/>
<path d="M0,0 L3,0 L3,3 L0,3 Z " fill="#000000" transform="translate(143,147)"/>
<path d="M0,0 L4,0 L4,3 L0,3 Z " fill="#000000" transform="translate(71,150)"/>
<path d="M0,0 L3,0 L3,3 L0,3 Z " fill="#000000" transform="translate(94,150)"/>
<path d="M0,0 L3,0 L3,3 L0,3 Z " fill="#000000" transform="translate(117,150)"/>
<path d="M0,0 L3,0 L3,3 L0,3 Z " fill="#000000" transform="translate(140,150)"/>
<path d="M0,0 L3,0 L3,3 L0,3 Z " fill="#000000" transform="translate(68,153)"/>
<path d="M0,0 L3,0 L3,3 L0,3 Z " fill="#000000" transform="translate(91,153)"/>
<path d="M0,0 L3,0 L3,3 L0,3 Z " fill="#000000" transform="translate(114,153)"/>
<path d="M0,0 L3,0 L3,3 L0,3 Z " fill="#000000" transform="translate(137,153)"/>
<path d="M0,0 L3,0 L3,3 L0,3 Z " fill="#000000" transform="translate(65,156)"/>
<path d="M0,0 L3,0 L3,3 L0,3 Z " fill="#000000" transform="translate(88,156)"/>
<path d="M0,0 L3,0 L3,3 L0,3 Z " fill="#000000" transform="translate(111,156)"/>
<path d="M0,0 L4,0 L4,3 L0,3 Z " fill="#000000" transform="translate(133,156)"/>
<path d="M0,0 L4,0 L4,3 L0,3 Z " fill="#000000" transform="translate(84,159)"/>
<path d="M0,0 L4,0 L4,3 L0,3 Z " fill="#000000" transform="translate(107,159)"/>
<path d="M0,0 L3,0 L3,3 L0,3 Z " fill="#000000" transform="translate(130,159)"/>
<path d="M0,0 L3,0 L3,3 L0,3 Z " fill="#000000" transform="translate(81,162)"/>
<path d="M0,0 L3,0 L3,3 L0,3 Z " fill="#000000" transform="translate(104,162)"/>
<path d="M0,0 L3,0 L3,3 L0,3 Z " fill="#000000" transform="translate(127,162)"/>
<path d="M0,0 L3,0 L3,3 L0,3 Z " fill="#000000" transform="translate(78,165)"/>
<path d="M0,0 L3,0 L3,3 L0,3 Z " fill="#000000" transform="translate(101,165)"/>
<path d="M0,0 L3,0 L3,3 L0,3 Z " fill="#000000" transform="translate(124,165)"/>
<path d="M0,0 L4,0 L4,3 L0,3 Z " fill="#000000" transform="translate(146,165)"/>
<path d="M0,0 L3,0 L3,3 L0,3 Z " fill="#000000" transform="translate(75,168)"/>
<path d="M0,0 L4,0 L4,3 L0,3 Z " fill="#000000" transform="translate(97,168)"/>
<path d="M0,0 L4,0 L4,3 L0,3 Z " fill="#000000" transform="translate(120,168)"/>
<path d="M0,0 L3,0 L3,3 L0,3 Z " fill="#000000" transform="translate(143,168)"/>
<path d="M0,0 L4,0 L4,3 L0,3 Z " fill="#000000" transform="translate(71,171)"/>
<path d="M0,0 L3,0 L3,3 L0,3 Z " fill="#000000" transform="translate(94,171)"/>
<path d="M0,0 L3,0 L3,3 L0,3 Z " fill="#000000" transform="translate(117,171)"/>
<path d="M0,0 L3,0 L3,3 L0,3 Z " fill="#000000" transform="translate(140,171)"/>
<path d="M0,0 L3,0 L3,3 L0,3 Z " fill="#000000" transform="translate(68,174)"/>
<path d="M0,0 L3,0 L3,3 L0,3 Z " fill="#000000" transform="translate(91,174)"/>
<path d="M0,0 L3,0 L3,3 L0,3 Z " fill="#000000" transform="translate(114,174)"/>
<path d="M0,0 L3,0 L3,3 L0,3 Z " fill="#000000" transform="translate(137,174)"/>
<path d="M0,0 L3,0 L3,3 L0,3 Z " fill="#000000" transform="translate(65,177)"/>
<path d="M0,0 L3,0 L3,3 L0,3 Z " fill="#000000" transform="translate(88,177)"/>
<path d="M0,0 L3,0 L3,3 L0,3 Z " fill="#000000" transform="translate(111,177)"/>
<path d="M0,0 L4,0 L4,3 L0,3 Z " fill="#000000" transform="translate(133,177)"/>
<path d="M0,0 L4,0 L4,3 L0,3 Z " fill="#000000" transform="translate(84,180)"/>
<path d="M0,0 L4,0 L4,3 L0,3 Z " fill="#000000" transform="translate(107,180)"/>
<path d="M0,0 L3,0 L3,3 L0,3 Z " fill="#000000" transform="translate(130,180)"/>
<path d="M0,0 L3,0 L3,3 L0,3 Z " fill="#000000" transform="translate(290,180)"/>
<path d="M0,0 L3,0 L3,3 L0,3 Z " fill="#000000" transform="translate(13,183)"/>
<path d="M0,0 L3,0 L3,3 L0,3 Z " fill="#000000" transform="translate(81,183)"/>
<path d="M0,0 L3,0 L3,3 L0,3 Z " fill="#000000" transform="translate(104,183)"/>
<path d="M0,0 L3,0 L3,3 L0,3 Z " fill="#000000" transform="translate(127,183)"/>
<path d="M0,0 L3,0 L3,3 L0,3 Z " fill="#000000" transform="translate(78,186)"/>
<path d="M0,0 L3,0 L3,3 L0,3 Z " fill="#000000" transform="translate(101,186)"/>
<path d="M0,0 L3,0 L3,3 L0,3 Z " fill="#000000" transform="translate(124,186)"/>
<path d="M0,0 L4,0 L4,3 L0,3 Z " fill="#000000" transform="translate(146,186)"/>
<path d="M0,0 L3,0 L3,3 L0,3 Z " fill="#000000" transform="translate(75,189)"/>
<path d="M0,0 L4,0 L4,3 L0,3 Z " fill="#000000" transform="translate(97,189)"/>
<path d="M0,0 L4,0 L4,3 L0,3 Z " fill="#000000" transform="translate(120,189)"/>
<path d="M0,0 L3,0 L3,3 L0,3 Z " fill="#000000" transform="translate(143,189)"/>
<path d="M0,0 L4,0 L4,3 L0,3 Z " fill="#000000" transform="translate(71,192)"/>
<path d="M0,0 L3,0 L3,3 L0,3 Z " fill="#000000" transform="translate(94,192)"/>
<path d="M0,0 L3,0 L3,3 L0,3 Z " fill="#000000" transform="translate(117,192)"/>
<path d="M0,0 L3,0 L3,3 L0,3 Z " fill="#000000" transform="translate(140,192)"/>
<path d="M0,0 L3,0 L3,3 L0,3 Z " fill="#000000" transform="translate(68,195)"/>
<path d="M0,0 L3,0 L3,3 L0,3 Z " fill="#000000" transform="translate(91,195)"/>
<path d="M0,0 L3,0 L3,3 L0,3 Z " fill="#000000" transform="translate(114,195)"/>
<path d="M0,0 L3,0 L3,3 L0,3 Z " fill="#000000" transform="translate(137,195)"/>
<path d="M0,0 L3,0 L3,3 L0,3 Z " fill="#000000" transform="translate(65,198)"/>
<path d="M0,0 L3,0 L3,3 L0,3 Z " fill="#000000" transform="translate(88,198)"/>
<path d="M0,0 L3,0 L3,3 L0,3 Z " fill="#000000" transform="translate(111,198)"/>
<path d="M0,0 L4,0 L4,3 L0,3 Z " fill="#000000" transform="translate(133,198)"/>
<path d="M0,0 L4,0 L4,3 L0,3 Z " fill="#000000" transform="translate(84,201)"/>
<path d="M0,0 L4,0 L4,3 L0,3 Z " fill="#000000" transform="translate(107,201)"/>
<path d="M0,0 L3,0 L3,3 L0,3 Z " fill="#000000" transform="translate(130,201)"/>
<path d="M0,0 L3,0 L3,3 L0,3 Z " fill="#000000" transform="translate(81,204)"/>
<path d="M0,0 L3,0 L3,3 L0,3 Z " fill="#000000" transform="translate(104,204)"/>
<path d="M0,0 L3,0 L3,3 L0,3 Z " fill="#000000" transform="translate(127,204)"/>
<path d="M0,0 L3,0 L3,4 L0,4 Z " fill="#000000" transform="translate(78,207)"/>
<path d="M0,0 L3,0 L3,4 L0,4 Z " fill="#000000" transform="translate(101,207)"/>
<path d="M0,0 L3,0 L3,4 L0,4 Z " fill="#000000" transform="translate(124,207)"/>
<path d="M0,0 L4,0 L4,4 L0,4 Z " fill="#000000" transform="translate(146,207)"/>
<path d="M0,0 L3,0 L3,3 L0,3 Z " fill="#000000" transform="translate(75,211)"/>
<path d="M0,0 L4,0 L4,3 L0,3 Z " fill="#000000" transform="translate(97,211)"/>
<path d="M0,0 L4,0 L4,3 L0,3 Z " fill="#000000" transform="translate(120,211)"/>
<path d="M0,0 L3,0 L3,3 L0,3 Z " fill="#000000" transform="translate(143,211)"/>
<path d="M0,0 L4,0 L4,3 L0,3 Z " fill="#000000" transform="translate(71,214)"/>
<path d="M0,0 L3,0 L3,3 L0,3 Z " fill="#000000" transform="translate(94,214)"/>
<path d="M0,0 L3,0 L3,3 L0,3 Z " fill="#000000" transform="translate(117,214)"/>
<path d="M0,0 L3,0 L3,3 L0,3 Z " fill="#000000" transform="translate(140,214)"/>
<path d="M0,0 L3,0 L3,3 L0,3 Z " fill="#000000" transform="translate(68,217)"/>
<path d="M0,0 L3,0 L3,3 L0,3 Z " fill="#000000" transform="translate(91,217)"/>
<path d="M0,0 L3,0 L3,3 L0,3 Z " fill="#000000" transform="translate(114,217)"/>
<path d="M0,0 L3,0 L3,3 L0,3 Z " fill="#000000" transform="translate(137,217)"/>
<path d="M0,0 L3,0 L3,3 L0,3 Z " fill="#000000" transform="translate(65,220)"/>
<path d="M0,0 L3,0 L3,3 L0,3 Z " fill="#000000" transform="translate(88,220)"/>
<path d="M0,0 L3,0 L3,3 L0,3 Z " fill="#000000" transform="translate(111,220)"/>
<path d="M0,0 L4,0 L4,3 L0,3 Z " fill="#000000" transform="translate(133,220)"/>
<path d="M0,0 L3,0 L3,3 L0,3 Z " fill="#000000" transform="translate(13,226)"/>
<path d="M0,0 L3,0 L3,3 L0,3 Z " fill="#000000" transform="translate(290,226)"/>
<path d="M0,0 L3,0 L3,3 L0,3 Z " fill="#000000" transform="translate(13,268)"/>
<path d="M0,0 L4,0 L4,3 L0,3 Z " fill="#000000" transform="translate(58,268)"/>
<path d="M0,0 L4,0 L4,3 L0,3 Z " fill="#000000" transform="translate(107,268)"/>
<path d="M0,0 L3,0 L3,3 L0,3 Z " fill="#000000" transform="translate(153,268)"/>
<path d="M0,0 L3,0 L3,3 L0,3 Z " fill="#000000" transform="translate(199,268)"/>
<path d="M0,0 L4,0 L4,3 L0,3 Z " fill="#000000" transform="translate(244,268)"/>
<path d="M0,0 L3,0 L3,3 L0,3 Z " fill="#000000" transform="translate(290,268)"/>
</svg>
