<?xml version="1.0" encoding="UTF-8"?>
<!-- Generator: visioncortex VTracer 0.6.12 -->
<svg version="1.1" xmlns="http://www.w3.org/2000/svg" width="473" height="575">
<path d="M0,0 L3,0 L3,2 L0,2 Z " fill="#000000" transform="translate(11,10)"/>
<path d="M0,0 L3,0 L3,2 L0,2 Z " fill="#000000" transform="translate(48,10)"/>
<path d="M0,0 L2,0 L2,2 L0,2 Z " fill="#000000" transform="translate(85,10)"/>
<path d="M0,0 L2,0 L2,2 L0,2 Z " fill="#000000" transform="translate(122,10)"/>
<path d="M0,0 L3,0 L3,2 L0,2 Z " fill="#000000" transform="translate(158,10)"/>
<path d="M0,0 L3,0 L3,2 L0,2 Z " fill="#000000" transform="translate(195,10)"/>
<path d="M0,0 L3,0 L3,2 L0,2 Z " fill="#000000" transform="translate(234,10)"/>
<path d="M0,0 L3,0 L3,2 L0,2 Z " fill="#000000" transform="translate(271,10)"/>
<path d="M0,0 L3,0 L3,2 L0,2 Z " fill="#000000" transform="translate(308,10)"/>
<path d="M0,0 L2,0 L2,2 L0,2 Z " fill="#000000" transform="translate(345,10)"/>
<path d="M0,0 L3,0 L3,2 L0,2 Z " fill="#000000" transform="translate(381,10)"/>
<path d="M0,0 L2,0 L2,2 L0,2 Z " fill="#000000" transform="translate(421,10)"/>
<path d="M0,0 L2,0 L2,2 L0,2 Z " fill="#000000" transform="translate(458,10)"/>
<path d="M0,0 L3,0 L3,2 L0,2 Z " fill="#000000" transform="translate(11,44)"/>
<path d="M0,0 L3,0 L3,2 L0,2 Z " fill="#000000" transform="translate(48,44)"/>
<path d="M0,0 L2,0 L2,2 L0,2 Z " fill="#000000" transform="translate(85,44)"/>
<path d="M0,0 L2,0 L2,2 L0,2 Z " fill="#000000" transform="translate(122,44)"/>
<path d="M0,0 L3,0 L3,2 L0,2 Z " fill="#000000" transform="translate(158,44)"/>
<path d="M0,0 L3,0 L3,2 L0,2 Z " fill="#000000" transform="translate(195,44)"/>
<path d="M0,0 L3,0 L3,70 L24,70 L24,73 L35,73 L35,75 L42,75 L42,78 L48,78 L48,80 L56,80 L56,85 L53,85 L53,83 L45,83 L45,80 L40,80 L40,78 L32,78 L32,75 L21,75 L21,73 L-21,73 L-21,75 L-31,75 L-31,78 L-39,78 L-39,80 L-44,80 L-44,83 L-52,83 L-52,80 L-47,80 L-47,78 L-42,78 L-42,75 L-34,75 L-34,73 L-23,73 L-23,70 L0,70 Z " fill="#000000" transform="translate(234,44)"/>
<path d="M0,0 L3,0 L3,2 L0,2 Z " fill="#000000" transform="translate(271,44)"/>
<path d="M0,0 L3,0 L3,2 L0,2 Z " fill="#000000" transform="translate(308,44)"/>
<path d="M0,0 L2,0 L2,2 L0,2 Z " fill="#000000" transform="translate(345,44)"/>
<path d="M0,0 L3,0 L3,2 L0,2 Z " fill="#000000" transform="translate(381,44)"/>
<path d="M0,0 L2,0 L2,2 L0,2 Z " fill="#000000" transform="translate(421,44)"/>
<path d="M0,0 L2,0 L2,2 L0,2 Z " fill="#000000" transform="translate(458,44)"/>
<path d="M0,0 L3,0 L3,2 L0,2 Z " fill="#000000" transform="translate(11,78)"/>
<path d="M0,0 L3,0 L3,2 L0,2 Z " fill="#000000" transform="translate(48,78)"/>
<path d="M0,0 L2,0 L2,2 L0,2 Z " fill="#000000" transform="translate(85,78)"/>
<path d="M0,0 L2,0 L2,2 L0,2 Z " fill="#000000" transform="translate(122,78)"/>
<path d="M0,0 L3,0 L3,2 L0,2 Z " fill="#000000" transform="translate(158,78)"/>
<path d="M0,0 L3,0 L3,2 L0,2 Z " fill="#000000" transform="translate(195,78)"/>
<path d="M0,0 L3,0 L3,2 L0,2 Z " fill="#000000" transform="translate(271,78)"/>
<path d="M0,0 L3,0 L3,2 L0,2 Z " fill="#000000" transform="translate(308,78)"/>
<path d="M0,0 L2,0 L2,2 L0,2 Z " fill="#000000" transform="translate(345,78)"/>
<path d="M0,0 L3,0 L3,2 L0,2 Z " fill="#000000" transform="translate(381,78)"/>
<path d="M0,0 L2,0 L2,2 L0,2 Z " fill="#000000" transform="translate(421,78)"/>
<path d="M0,0 L2,0 L2,2 L0,2 Z " fill="#000000" transform="translate(458,78)"/>
<path d="M0,0 L3,0 L3,3 L0,3 Z " fill="#000000" transform="translate(11,114)"/>
<path d="M0,0 L3,0 L3,3 L0,3 Z " fill="#000000" transform="translate(48,114)"/>
<path d="M0,0 L2,0 L2,3 L0,3 Z " fill="#000000" transform="translate(85,114)"/>
<path d="M0,0 L2,0 L2,3 L0,3 Z " fill="#000000" transform="translate(122,114)"/>
<path d="M0,0 L3,0 L3,3 L0,3 Z " fill="#000000" transform="translate(158,114)"/>
<path d="M0,0 L3,0 L3,3 L0,3 Z " fill="#000000" transform="translate(195,114)"/>
<path d="M0,0 L3,0 L3,3 L0,3 Z " fill="#000000" transform="translate(271,114)"/>
<path d="M0,0 L3,0 L3,3 L0,3 Z " fill="#000000" transform="translate(308,114)"/>
<path d="M0,0 L2,0 L2,3 L0,3 Z " fill="#000000" transform="translate(345,114)"/>
<path d="M0,0 L3,0 L3,3 L0,3 Z " fill="#000000" transform="translate(381,114)"/>
<path d="M0,0 L2,0 L2,3 L0,3 Z " fill="#000000" transform="translate(421,114)"/>
<path d="M0,0 L2,0 L2,3 L0,3 Z " fill="#000000" transform="translate(458,114)"/>
<path d="M0,0 L5,0 L5,2 L2,2 L2,4 L-6,4 L-6,2 L0,2 Z " fill="#000000" transform="translate(177,127)"/>
<path d="M0,0 L7,0 L7,5 L5,5 L5,2 L0,2 Z " fill="#000000" transform="translate(290,129)"/>
<path d="M0,0 L2,0 L2,5 L-3,5 L-3,3 L0,3 Z " fill="#000000" transform="translate(169,131)"/>
<path d="M0,0 L6,0 L6,2 L8,2 L8,5 L3,5 L3,2 L0,2 Z " fill="#000000" transform="translate(297,134)"/>
<path d="M0,0 L5,0 L5,3 L3,3 L3,5 L-3,5 L-3,3 L0,3 Z " fill="#000000" transform="translate(161,136)"/>
<path d="M0,0 L6,0 L6,5 L3,5 L3,2 L0,2 Z " fill="#000000" transform="translate(305,139)"/>
<path d="M0,0 L2,0 L2,5 L-3,5 L-3,3 L0,3 Z " fill="#000000" transform="translate(156,141)"/>
<path d="M0,0 L5,0 L5,4 L2,4 L2,2 L0,2 Z " fill="#000000" transform="translate(311,144)"/>
<path d="M0,0 L3,0 L3,5 L-2,5 L-2,2 L0,2 Z " fill="#000000" transform="translate(150,146)"/>
<path d="M0,0 L3,0 L3,3 L0,3 Z " fill="#000000" transform="translate(11,148)"/>
<path d="M0,0 L3,0 L3,3 L0,3 Z " fill="#000000" transform="translate(48,148)"/>
<path d="M0,0 L2,0 L2,3 L0,3 Z " fill="#000000" transform="translate(85,148)"/>
<path d="M0,0 L2,0 L2,3 L0,3 Z " fill="#000000" transform="translate(122,148)"/>
<path d="M0,0 L3,0 L3,3 L0,3 Z " fill="#000000" transform="translate(158,148)"/>
<path d="M0,0 L3,0 L3,3 L0,3 Z " fill="#000000" transform="translate(195,148)"/>
<path d="M0,0 L3,0 L3,3 L0,3 Z " fill="#000000" transform="translate(234,148)"/>
<path d="M0,0 L3,0 L3,3 L0,3 Z " fill="#000000" transform="translate(271,148)"/>
<path d="M0,0 L3,0 L3,3 L0,3 Z " fill="#000000" transform="translate(308,148)"/>
<path d="M0,0 L5,0 L5,5 L2,5 L2,3 L0,3 Z " fill="#000000" transform="translate(316,148)"/>
<path d="M0,0 L2,0 L2,3 L0,3 Z " fill="#000000" transform="translate(345,148)"/>
<path d="M0,0 L3,0 L3,3 L0,3 Z " fill="#000000" transform="translate(381,148)"/>
<path d="M0,0 L2,0 L2,3 L0,3 Z " fill="#000000" transform="translate(421,148)"/>
<path d="M0,0 L2,0 L2,3 L0,3 Z " fill="#000000" transform="translate(458,148)"/>
<path d="M0,0 L3,0 L3,7 L-2,7 L-2,5 L0,5 Z " fill="#000000" transform="translate(145,151)"/>
<path d="M0,0 L3,0 L3,3 L0,3 Z " fill="#000000" transform="translate(321,153)"/>
<path d="M0,0 L2,0 L2,5 L0,5 Z " fill="#000000" transform="translate(324,156)"/>
<path d="M0,0 L3,0 L3,7 L-3,7 L-3,5 L0,5 Z " fill="#000000" transform="translate(140,158)"/>
<path d="M0,0 L3,0 L3,2 L0,2 Z " fill="#000000" transform="translate(326,161)"/>
<path d="M0,0 L3,0 L3,5 L0,5 Z " fill="#000000" transform="translate(329,163)"/>
<path d="M0,0 L2,0 L2,8 L0,8 L0,15 L-3,15 L-3,17 L-6,17 L-6,13 L-3,13 L-3,5 L0,5 Z " fill="#000000" transform="translate(135,165)"/>
<path d="M0,0 L2,0 L2,2 L5,2 L5,10 L2,10 L2,5 L0,5 Z " fill="#000000" transform="translate(332,168)"/>
<path d="M0,0 L2,0 L2,7 L0,7 Z " fill="#000000" transform="translate(337,178)"/>
<path d="M0,0 L3,0 L3,3 L0,3 Z " fill="#000000" transform="translate(11,182)"/>
<path d="M0,0 L3,0 L3,3 L0,3 Z " fill="#000000" transform="translate(48,182)"/>
<path d="M0,0 L2,0 L2,3 L0,3 Z " fill="#000000" transform="translate(85,182)"/>
<path d="M0,0 L2,0 L2,3 L0,3 Z " fill="#000000" transform="translate(122,182)"/>
<path d="M0,0 L2,0 L2,8 L0,8 Z " fill="#000000" transform="translate(127,182)"/>
<path d="M0,0 L3,0 L3,3 L0,3 Z " fill="#000000" transform="translate(158,182)"/>
<path d="M0,0 L3,0 L3,3 L0,3 Z " fill="#000000" transform="translate(195,182)"/>
<path d="M0,0 L3,0 L3,3 L0,3 Z " fill="#000000" transform="translate(234,182)"/>
<path d="M0,0 L3,0 L3,3 L0,3 Z " fill="#000000" transform="translate(271,182)"/>
<path d="M0,0 L3,0 L3,3 L0,3 Z " fill="#000000" transform="translate(308,182)"/>
<path d="M0,0 L2,0 L2,3 L0,3 Z " fill="#000000" transform="translate(345,182)"/>
<path d="M0,0 L3,0 L3,3 L0,3 Z " fill="#000000" transform="translate(381,182)"/>
<path d="M0,0 L2,0 L2,3 L0,3 Z " fill="#000000" transform="translate(421,182)"/>
<path d="M0,0 L2,0 L2,3 L0,3 Z " fill="#000000" transform="translate(458,182)"/>
<path d="M0,0 L3,0 L3,7 L0,7 Z " fill="#000000" transform="translate(339,185)"/>
<path d="M0,0 L3,0 L3,14 L0,14 L0,44 L3,44 L3,56 L0,56 L0,46 L-2,46 L-2,12 L0,12 Z " fill="#000000" transform="translate(124,190)"/>
<path d="M0,0 L3,0 L3,10 L5,10 L5,44 L3,44 L3,54 L0,54 L0,42 L3,42 L3,12 L0,12 Z " fill="#000000" transform="translate(342,192)"/>
<path d="M0,0 L3,0 L3,2 L0,2 Z " fill="#000000" transform="translate(11,217)"/>
<path d="M0,0 L3,0 L3,2 L0,2 Z " fill="#000000" transform="translate(48,217)"/>
<path d="M0,0 L2,0 L2,2 L0,2 Z " fill="#000000" transform="translate(85,217)"/>
<path d="M0,0 L3,0 L3,2 L0,2 Z " fill="#000000" transform="translate(158,217)"/>
<path d="M0,0 L3,0 L3,2 L0,2 Z " fill="#000000" transform="translate(195,217)"/>
<path d="M0,0 L3,0 L3,2 L0,2 Z " fill="#000000" transform="translate(234,217)"/>
<path d="M0,0 L3,0 L3,2 L0,2 Z " fill="#000000" transform="translate(271,217)"/>
<path d="M0,0 L3,0 L3,2 L0,2 Z " fill="#000000" transform="translate(308,217)"/>
<path d="M0,0 L3,0 L3,2 L0,2 Z " fill="#000000" transform="translate(381,217)"/>
<path d="M0,0 L2,0 L2,2 L0,2 Z " fill="#000000" transform="translate(421,217)"/>
<path d="M0,0 L2,0 L2,2 L0,2 Z " fill="#000000" transform="translate(458,217)"/>
<path d="M0,0 L2,0 L2,7 L0,7 Z " fill="#000000" transform="translate(127,246)"/>
<path d="M0,0 L3,0 L3,7 L0,7 Z " fill="#000000" transform="translate(339,246)"/>
<path d="M0,0 L3,0 L3,2 L0,2 Z " fill="#000000" transform="translate(11,251)"/>
<path d="M0,0 L3,0 L3,2 L0,2 Z " fill="#000000" transform="translate(48,251)"/>
<path d="M0,0 L2,0 L2,2 L0,2 Z " fill="#000000" transform="translate(85,251)"/>
<path d="M0,0 L2,0 L2,2 L0,2 Z " fill="#000000" transform="translate(122,251)"/>
<path d="M0,0 L21,0 L21,2 L37,2 L37,4 L48,4 L48,7 L50,7 L50,9 L45,9 L45,7 L35,7 L35,4 L19,4 L19,2 L3,2 L3,4 L-15,4 L-15,7 L-18,7 L-18,9 L-21,9 L-21,7 L-26,7 L-26,4 L-21,4 L-21,2 L0,2 Z " fill="#000000" transform="translate(150,251)"/>
<path d="M0,0 L3,0 L3,2 L0,2 Z " fill="#000000" transform="translate(195,251)"/>
<path d="M0,0 L3,0 L3,2 L0,2 Z " fill="#000000" transform="translate(234,251)"/>
<path d="M0,0 L3,0 L3,2 L0,2 Z " fill="#000000" transform="translate(271,251)"/>
<path d="M0,0 L21,0 L21,2 L42,2 L42,4 L48,4 L48,7 L53,7 L53,9 L45,9 L45,7 L40,7 L40,12 L37,12 L37,4 L19,4 L19,2 L3,2 L3,4 L-13,4 L-13,7 L-23,7 L-23,4 L-15,4 L-15,2 L0,2 Z " fill="#000000" transform="translate(297,251)"/>
<path d="M0,0 L2,0 L2,2 L0,2 Z " fill="#000000" transform="translate(345,251)"/>
<path d="M0,0 L3,0 L3,2 L0,2 Z " fill="#000000" transform="translate(381,251)"/>
<path d="M0,0 L2,0 L2,2 L0,2 Z " fill="#000000" transform="translate(421,251)"/>
<path d="M0,0 L2,0 L2,2 L0,2 Z " fill="#000000" transform="translate(458,251)"/>
<path d="M0,0 L8,0 L8,2 L3,2 L3,5 L-2,5 L-2,7 L-10,7 L-10,5 L-5,5 L-5,2 L0,2 Z " fill="#000000" transform="translate(116,258)"/>
<path d="M0,0 L8,0 L8,2 L3,2 L3,5 L-3,5 L-3,7 L-11,7 L-11,5 L-5,5 L-5,2 L0,2 Z " fill="#000000" transform="translate(266,258)"/>
<path d="M0,0 L3,0 L3,5 L0,5 Z " fill="#000000" transform="translate(132,260)"/>
<path d="M0,0 L8,0 L8,3 L13,3 L13,5 L16,5 L16,8 L11,8 L11,5 L6,5 L6,3 L0,3 Z " fill="#000000" transform="translate(200,260)"/>
<path d="M0,0 L8,0 L8,3 L13,3 L13,5 L16,5 L16,8 L10,8 L10,5 L5,5 L5,3 L0,3 Z " fill="#000000" transform="translate(350,260)"/>
<path d="M0,0 L2,0 L2,5 L0,5 Z " fill="#000000" transform="translate(332,263)"/>
<path d="M0,0 L5,0 L5,3 L2,3 L2,5 L-3,5 L-3,3 L0,3 Z " fill="#000000" transform="translate(101,265)"/>
<path d="M0,0 L2,0 L2,5 L0,5 Z " fill="#000000" transform="translate(135,265)"/>
<path d="M0,0 L5,0 L5,3 L3,3 L3,5 L-2,5 L-2,3 L0,3 Z " fill="#000000" transform="translate(250,265)"/>
<path d="M0,0 L8,0 L8,4 L5,4 L5,2 L0,2 Z " fill="#000000" transform="translate(216,268)"/>
<path d="M0,0 L3,0 L3,4 L0,4 Z " fill="#000000" transform="translate(329,268)"/>
<path d="M0,0 L5,0 L5,2 L8,2 L8,4 L2,4 L2,2 L0,2 Z " fill="#000000" transform="translate(366,268)"/>
<path d="M0,0 L5,0 L5,2 L2,2 L2,5 L-3,5 L-3,2 L0,2 Z " fill="#000000" transform="translate(93,270)"/>
<path d="M0,0 L3,0 L3,5 L0,5 Z " fill="#000000" transform="translate(137,270)"/>
<path d="M0,0 L6,0 L6,2 L3,2 L3,5 L-2,5 L-2,2 L0,2 Z " fill="#000000" transform="translate(242,270)"/>
<path d="M0,0 L5,0 L5,3 L8,3 L8,5 L3,5 L3,3 L0,3 Z " fill="#000000" transform="translate(224,272)"/>
<path d="M0,0 L3,0 L3,8 L-2,8 L-2,5 L0,5 Z " fill="#000000" transform="translate(326,272)"/>
<path d="M0,0 L5,0 L5,3 L7,3 L7,5 L2,5 L2,3 L0,3 Z " fill="#000000" transform="translate(374,272)"/>
<path d="M0,0 L3,0 L3,5 L-2,5 L-2,2 L0,2 Z " fill="#000000" transform="translate(87,275)"/>
<path d="M0,0 L3,0 L3,2 L0,2 Z " fill="#000000" transform="translate(140,275)"/>
<path d="M0,0 L6,0 L6,2 L3,2 L3,7 L0,7 L0,5 L-2,5 L-2,2 L0,2 Z " fill="#000000" transform="translate(234,275)"/>
<path d="M0,0 L2,0 L2,5 L0,5 Z " fill="#000000" transform="translate(143,277)"/>
<path d="M0,0 L6,0 L6,5 L3,5 L3,3 L0,3 Z " fill="#000000" transform="translate(381,277)"/>
<path d="M0,0 L3,0 L3,5 L-2,5 L-2,2 L0,2 Z " fill="#000000" transform="translate(82,280)"/>
<path d="M0,0 L3,0 L3,5 L-2,5 L-2,2 L0,2 Z " fill="#000000" transform="translate(229,280)"/>
<path d="M0,0 L3,0 L3,2 L0,2 Z " fill="#000000" transform="translate(321,280)"/>
<path d="M0,0 L3,0 L3,3 L0,3 Z " fill="#000000" transform="translate(145,282)"/>
<path d="M0,0 L5,0 L5,5 L3,5 L3,3 L0,3 Z " fill="#000000" transform="translate(237,282)"/>
<path d="M0,0 L3,0 L3,5 L-2,5 L-2,3 L0,3 Z " fill="#000000" transform="translate(318,282)"/>
<path d="M0,0 L5,0 L5,5 L8,5 L8,10 L5,10 L5,7 L2,7 L2,3 L0,3 Z " fill="#000000" transform="translate(387,282)"/>
<path d="M0,0 L3,0 L3,4 L-3,4 L-3,2 L0,2 Z " fill="#000000" transform="translate(77,285)"/>
<path d="M0,0 L5,0 L5,4 L2,4 L2,2 L0,2 Z " fill="#000000" transform="translate(148,285)"/>
<path d="M0,0 L3,0 L3,4 L0,4 Z " fill="#000000" transform="translate(224,285)"/>
<path d="M0,0 L3,0 L3,2 L0,2 Z " fill="#000000" transform="translate(11,287)"/>
<path d="M0,0 L3,0 L3,2 L0,2 Z " fill="#000000" transform="translate(48,287)"/>
<path d="M0,0 L2,0 L2,2 L0,2 Z " fill="#000000" transform="translate(85,287)"/>
<path d="M0,0 L2,0 L2,2 L0,2 Z " fill="#000000" transform="translate(122,287)"/>
<path d="M0,0 L3,0 L3,2 L0,2 Z " fill="#000000" transform="translate(158,287)"/>
<path d="M0,0 L3,0 L3,2 L0,2 Z " fill="#000000" transform="translate(195,287)"/>
<path d="M0,0 L3,0 L3,2 L0,2 Z " fill="#000000" transform="translate(234,287)"/>
<path d="M0,0 L6,0 L6,7 L3,7 L3,2 L0,2 Z " fill="#000000" transform="translate(242,287)"/>
<path d="M0,0 L3,0 L3,2 L0,2 Z " fill="#000000" transform="translate(271,287)"/>
<path d="M0,0 L3,0 L3,2 L0,2 Z " fill="#000000" transform="translate(308,287)"/>
<path d="M0,0 L3,0 L3,5 L-2,5 L-2,2 L0,2 Z " fill="#000000" transform="translate(313,287)"/>
<path d="M0,0 L2,0 L2,2 L0,2 Z " fill="#000000" transform="translate(345,287)"/>
<path d="M0,0 L3,0 L3,2 L0,2 Z " fill="#000000" transform="translate(381,287)"/>
<path d="M0,0 L2,0 L2,2 L0,2 Z " fill="#000000" transform="translate(421,287)"/>
<path d="M0,0 L2,0 L2,2 L0,2 Z " fill="#000000" transform="translate(458,287)"/>
<path d="M0,0 L2,0 L2,3 L0,3 Z " fill="#000000" transform="translate(72,289)"/>
<path d="M0,0 L5,0 L5,5 L3,5 L3,3 L0,3 Z " fill="#000000" transform="translate(153,289)"/>
<path d="M0,0 L3,0 L3,3 L0,3 Z " fill="#000000" transform="translate(221,289)"/>
<path d="M0,0 L3,0 L3,5 L0,5 L0,7 L-3,7 L-3,2 L0,2 Z " fill="#000000" transform="translate(69,292)"/>
<path d="M0,0 L2,0 L2,5 L-3,5 L-3,2 L0,2 Z " fill="#000000" transform="translate(219,292)"/>
<path d="M0,0 L3,0 L3,5 L-3,5 L-3,2 L0,2 Z " fill="#000000" transform="translate(308,292)"/>
<path d="M0,0 L2,0 L2,2 L0,2 Z " fill="#000000" transform="translate(395,292)"/>
<path d="M0,0 L6,0 L6,5 L3,5 L3,3 L0,3 Z " fill="#000000" transform="translate(158,294)"/>
<path d="M0,0 L5,0 L5,5 L2,5 L2,3 L0,3 Z " fill="#000000" transform="translate(248,294)"/>
<path d="M0,0 L5,0 L5,8 L3,8 L3,3 L0,3 Z " fill="#000000" transform="translate(397,294)"/>
<path d="M0,0 L3,0 L3,7 L0,7 L0,9 L-2,9 L-2,5 L0,5 Z " fill="#000000" transform="translate(213,297)"/>
<path d="M0,0 L2,0 L2,2 L0,2 Z " fill="#000000" transform="translate(303,297)"/>
<path d="M0,0 L2,0 L2,5 L0,5 L0,7 L-3,7 L-3,3 L0,3 Z " fill="#000000" transform="translate(64,299)"/>
<path d="M0,0 L2,0 L2,3 L0,3 Z " fill="#000000" transform="translate(164,299)"/>
<path d="M0,0 L2,0 L2,3 L0,3 Z " fill="#000000" transform="translate(253,299)"/>
<path d="M0,0 L3,0 L3,5 L-5,5 L-5,3 L0,3 Z " fill="#000000" transform="translate(300,299)"/>
<path d="M0,0 L8,0 L8,4 L5,4 L5,2 L0,2 Z " fill="#000000" transform="translate(166,302)"/>
<path d="M0,0 L3,0 L3,4 L0,4 Z " fill="#000000" transform="translate(255,302)"/>
<path d="M0,0 L6,0 L6,7 L3,7 L3,2 L0,2 Z " fill="#000000" transform="translate(402,302)"/>
<path d="M0,0 L3,0 L3,5 L-2,5 L-2,7 L-8,7 L-8,10 L-16,10 L-16,7 L-10,7 L-10,5 L-5,5 L-5,2 L0,2 Z " fill="#000000" transform="translate(292,304)"/>
<path d="M0,0 L2,0 L2,5 L0,5 Z " fill="#000000" transform="translate(59,306)"/>
<path d="M0,0 L8,0 L8,3 L13,3 L13,5 L18,5 L18,8 L24,8 L24,10 L16,10 L16,8 L11,8 L11,5 L5,5 L5,3 L0,3 Z " fill="#000000" transform="translate(174,306)"/>
<path d="M0,0 L3,0 L3,5 L0,5 Z " fill="#000000" transform="translate(208,306)"/>
<path d="M0,0 L3,0 L3,8 L0,8 Z " fill="#000000" transform="translate(258,306)"/>
<path d="M0,0 L2,0 L2,5 L0,5 Z " fill="#000000" transform="translate(408,309)"/>
<path d="M0,0 L3,0 L3,8 L0,8 Z " fill="#000000" transform="translate(56,311)"/>
<path d="M0,0 L2,0 L2,8 L21,8 L21,10 L36,10 L36,8 L55,8 L55,3 L57,3 L57,5 L63,5 L63,3 L70,3 L70,5 L65,5 L65,8 L60,8 L60,12 L57,12 L57,10 L39,10 L39,12 L18,12 L18,10 L0,10 L0,15 L-3,15 L-3,22 L-6,22 L-6,39 L-8,39 L-8,20 L-6,20 L-6,12 L-3,12 L-3,8 L-8,8 L-8,5 L0,5 Z " fill="#000000" transform="translate(206,311)"/>
<path d="M0,0 L3,0 L3,2 L6,2 L6,9 L8,9 L8,22 L6,22 L6,12 L3,12 L3,5 L0,5 Z " fill="#000000" transform="translate(410,314)"/>
<path d="M0,0 L3,0 L3,7 L0,7 Z " fill="#000000" transform="translate(53,319)"/>
<path d="M0,0 L3,0 L3,2 L0,2 Z " fill="#000000" transform="translate(11,321)"/>
<path d="M0,0 L3,0 L3,2 L0,2 Z " fill="#000000" transform="translate(48,321)"/>
<path d="M0,0 L2,0 L2,2 L0,2 Z " fill="#000000" transform="translate(85,321)"/>
<path d="M0,0 L2,0 L2,2 L0,2 Z " fill="#000000" transform="translate(122,321)"/>
<path d="M0,0 L3,0 L3,2 L0,2 Z " fill="#000000" transform="translate(158,321)"/>
<path d="M0,0 L3,0 L3,2 L0,2 Z " fill="#000000" transform="translate(195,321)"/>
<path d="M0,0 L3,0 L3,2 L0,2 Z " fill="#000000" transform="translate(271,321)"/>
<path d="M0,0 L3,0 L3,2 L0,2 Z " fill="#000000" transform="translate(308,321)"/>
<path d="M0,0 L2,0 L2,2 L0,2 Z " fill="#000000" transform="translate(345,321)"/>
<path d="M0,0 L3,0 L3,2 L0,2 Z " fill="#000000" transform="translate(381,321)"/>
<path d="M0,0 L2,0 L2,2 L0,2 Z " fill="#000000" transform="translate(421,321)"/>
<path d="M0,0 L2,0 L2,2 L0,2 Z " fill="#000000" transform="translate(458,321)"/>
<path d="M0,0 L3,0 L3,8 L5,8 L5,22 L3,22 L3,10 L0,10 Z " fill="#000000" transform="translate(266,323)"/>
<path d="M0,0 L2,0 L2,10 L0,10 Z " fill="#000000" transform="translate(51,326)"/>
<path d="M0,0 L3,0 L3,41 L0,41 Z " fill="#000000" transform="translate(48,336)"/>
<path d="M0,0 L3,0 L3,19 L0,19 Z " fill="#000000" transform="translate(418,336)"/>
<path d="M0,0 L3,0 L3,20 L0,20 Z " fill="#000000" transform="translate(271,345)"/>
<path d="M0,0 L3,0 L3,12 L0,12 Z " fill="#000000" transform="translate(195,350)"/>
<path d="M0,0 L3,0 L3,3 L0,3 Z " fill="#000000" transform="translate(11,355)"/>
<path d="M0,0 L2,0 L2,3 L0,3 Z " fill="#000000" transform="translate(85,355)"/>
<path d="M0,0 L2,0 L2,3 L0,3 Z " fill="#000000" transform="translate(122,355)"/>
<path d="M0,0 L3,0 L3,3 L0,3 Z " fill="#000000" transform="translate(158,355)"/>
<path d="M0,0 L3,0 L3,3 L0,3 Z " fill="#000000" transform="translate(234,355)"/>
<path d="M0,0 L3,0 L3,3 L0,3 Z " fill="#000000" transform="translate(308,355)"/>
<path d="M0,0 L2,0 L2,3 L0,3 Z " fill="#000000" transform="translate(345,355)"/>
<path d="M0,0 L3,0 L3,3 L0,3 Z " fill="#000000" transform="translate(381,355)"/>
<path d="M0,0 L2,0 L2,3 L0,3 Z " fill="#000000" transform="translate(421,355)"/>
<path d="M0,0 L2,0 L2,3 L0,3 Z " fill="#000000" transform="translate(458,355)"/>
<path d="M0,0 L3,0 L3,19 L0,19 Z " fill="#000000" transform="translate(418,358)"/>
<path d="M0,0 L2,0 L2,17 L5,17 L5,25 L8,25 L8,32 L10,32 L10,39 L8,39 L8,34 L5,34 L5,27 L2,27 L2,20 L0,20 Z " fill="#000000" transform="translate(198,362)"/>
<path d="M0,0 L2,0 L2,17 L0,17 L0,24 L-3,24 L-3,14 L0,14 Z " fill="#000000" transform="translate(269,365)"/>
<path d="M0,0 L2,0 L2,10 L0,10 Z " fill="#000000" transform="translate(51,377)"/>
<path d="M0,0 L2,0 L2,12 L0,12 L0,19 L-3,19 L-3,22 L-6,22 L-6,17 L-3,17 L-3,10 L0,10 Z " fill="#000000" transform="translate(416,377)"/>
<path d="M0,0 L3,0 L3,7 L0,7 Z " fill="#000000" transform="translate(53,387)"/>
<path d="M0,0 L3,0 L3,3 L0,3 Z " fill="#000000" transform="translate(11,389)"/>
<path d="M0,0 L3,0 L3,3 L0,3 Z " fill="#000000" transform="translate(48,389)"/>
<path d="M0,0 L2,0 L2,3 L0,3 Z " fill="#000000" transform="translate(85,389)"/>
<path d="M0,0 L2,0 L2,3 L0,3 Z " fill="#000000" transform="translate(122,389)"/>
<path d="M0,0 L3,0 L3,3 L0,3 Z " fill="#000000" transform="translate(158,389)"/>
<path d="M0,0 L3,0 L3,3 L0,3 Z " fill="#000000" transform="translate(195,389)"/>
<path d="M0,0 L3,0 L3,3 L0,3 Z " fill="#000000" transform="translate(234,389)"/>
<path d="M0,0 L3,0 L3,7 L0,7 L0,15 L-5,15 L-5,12 L-2,12 L-2,5 L0,5 Z " fill="#000000" transform="translate(263,389)"/>
<path d="M0,0 L3,0 L3,3 L0,3 Z " fill="#000000" transform="translate(271,389)"/>
<path d="M0,0 L3,0 L3,3 L0,3 Z " fill="#000000" transform="translate(308,389)"/>
<path d="M0,0 L2,0 L2,3 L0,3 Z " fill="#000000" transform="translate(345,389)"/>
<path d="M0,0 L3,0 L3,3 L0,3 Z " fill="#000000" transform="translate(381,389)"/>
<path d="M0,0 L2,0 L2,3 L0,3 Z " fill="#000000" transform="translate(421,389)"/>
<path d="M0,0 L2,0 L2,3 L0,3 Z " fill="#000000" transform="translate(458,389)"/>
<path d="M0,0 L3,0 L3,7 L0,7 Z " fill="#000000" transform="translate(56,394)"/>
<path d="M0,0 L2,0 L2,5 L0,5 Z " fill="#000000" transform="translate(408,399)"/>
<path d="M0,0 L2,0 L2,5 L0,5 Z " fill="#000000" transform="translate(59,401)"/>
<path d="M0,0 L3,0 L3,5 L0,5 Z " fill="#000000" transform="translate(208,401)"/>
<path d="M0,0 L3,0 L3,7 L0,7 L0,9 L-2,9 L-2,5 L0,5 Z " fill="#000000" transform="translate(255,404)"/>
<path d="M0,0 L3,0 L3,7 L-3,7 L-3,5 L0,5 Z " fill="#000000" transform="translate(405,404)"/>
<path d="M0,0 L3,0 L3,3 L0,3 Z " fill="#000000" transform="translate(61,406)"/>
<path d="M0,0 L2,0 L2,3 L5,3 L5,7 L2,7 L2,5 L0,5 Z " fill="#000000" transform="translate(211,406)"/>
<path d="M0,0 L2,0 L2,4 L0,4 Z " fill="#000000" transform="translate(64,409)"/>
<path d="M0,0 L2,0 L2,7 L-3,7 L-3,5 L0,5 Z " fill="#000000" transform="translate(400,411)"/>
<path d="M0,0 L3,0 L3,3 L0,3 Z " fill="#000000" transform="translate(66,413)"/>
<path d="M0,0 L3,0 L3,3 L5,3 L5,8 L3,8 L3,5 L0,5 Z " fill="#000000" transform="translate(216,413)"/>
<path d="M0,0 L3,0 L3,5 L-2,5 L-2,3 L0,3 Z " fill="#000000" transform="translate(250,413)"/>
<path d="M0,0 L3,0 L3,5 L0,5 Z " fill="#000000" transform="translate(69,416)"/>
<path d="M0,0 L3,0 L3,8 L-3,8 L-3,5 L0,5 Z " fill="#000000" transform="translate(245,418)"/>
<path d="M0,0 L2,0 L2,3 L0,3 Z " fill="#000000" transform="translate(395,418)"/>
<path d="M0,0 L2,0 L2,2 L0,2 Z " fill="#000000" transform="translate(72,421)"/>
<path d="M0,0 L3,0 L3,2 L0,2 Z " fill="#000000" transform="translate(221,421)"/>
<path d="M0,0 L3,0 L3,5 L-3,5 L-3,2 L0,2 Z " fill="#000000" transform="translate(392,421)"/>
<path d="M0,0 L3,0 L3,3 L0,3 Z " fill="#000000" transform="translate(11,423)"/>
<path d="M0,0 L3,0 L3,3 L0,3 Z " fill="#000000" transform="translate(48,423)"/>
<path d="M0,0 L6,0 L6,5 L3,5 L3,3 L0,3 Z " fill="#000000" transform="translate(74,423)"/>
<path d="M0,0 L2,0 L2,3 L0,3 Z " fill="#000000" transform="translate(85,423)"/>
<path d="M0,0 L2,0 L2,3 L0,3 Z " fill="#000000" transform="translate(122,423)"/>
<path d="M0,0 L3,0 L3,3 L0,3 Z " fill="#000000" transform="translate(158,423)"/>
<path d="M0,0 L3,0 L3,3 L0,3 Z " fill="#000000" transform="translate(195,423)"/>
<path d="M0,0 L5,0 L5,5 L8,5 L8,10 L5,10 L5,7 L3,7 L3,3 L0,3 Z " fill="#000000" transform="translate(224,423)"/>
<path d="M0,0 L3,0 L3,3 L0,3 Z " fill="#000000" transform="translate(234,423)"/>
<path d="M0,0 L3,0 L3,3 L0,3 Z " fill="#000000" transform="translate(271,423)"/>
<path d="M0,0 L3,0 L3,3 L0,3 Z " fill="#000000" transform="translate(308,423)"/>
<path d="M0,0 L2,0 L2,3 L0,3 Z " fill="#000000" transform="translate(345,423)"/>
<path d="M0,0 L3,0 L3,3 L0,3 Z " fill="#000000" transform="translate(381,423)"/>
<path d="M0,0 L2,0 L2,3 L0,3 Z " fill="#000000" transform="translate(421,423)"/>
<path d="M0,0 L2,0 L2,3 L0,3 Z " fill="#000000" transform="translate(458,423)"/>
<path d="M0,0 L2,0 L2,4 L-3,4 L-3,2 L0,2 Z " fill="#000000" transform="translate(240,426)"/>
<path d="M0,0 L2,0 L2,4 L0,4 Z " fill="#000000" transform="translate(387,426)"/>
<path d="M0,0 L5,0 L5,5 L2,5 L2,2 L0,2 Z " fill="#000000" transform="translate(80,428)"/>
<path d="M0,0 L3,0 L3,5 L6,5 L6,8 L0,8 L0,5 L-2,5 L-2,3 L0,3 Z " fill="#000000" transform="translate(234,430)"/>
<path d="M0,0 L3,0 L3,5 L-5,5 L-5,3 L0,3 Z " fill="#000000" transform="translate(384,430)"/>
<path d="M0,0 L5,0 L5,5 L2,5 L2,2 L0,2 Z " fill="#000000" transform="translate(85,433)"/>
<path d="M0,0 L5,0 L5,3 L2,3 L2,5 L-3,5 L-3,3 L0,3 Z " fill="#000000" transform="translate(227,435)"/>
<path d="M0,0 L3,0 L3,5 L-2,5 L-2,3 L0,3 Z " fill="#000000" transform="translate(376,435)"/>
<path d="M0,0 L8,0 L8,5 L5,5 L5,2 L0,2 Z " fill="#000000" transform="translate(90,438)"/>
<path d="M0,0 L5,0 L5,2 L8,2 L8,5 L2,5 L2,2 L0,2 Z " fill="#000000" transform="translate(240,438)"/>
<path d="M0,0 L5,0 L5,3 L2,3 L2,5 L-3,5 L-3,3 L0,3 Z " fill="#000000" transform="translate(219,440)"/>
<path d="M0,0 L6,0 L6,3 L3,3 L3,5 L-2,5 L-2,3 L0,3 Z " fill="#000000" transform="translate(368,440)"/>
<path d="M0,0 L8,0 L8,4 L5,4 L5,2 L0,2 Z " fill="#000000" transform="translate(98,443)"/>
<path d="M0,0 L5,0 L5,2 L7,2 L7,4 L2,4 L2,2 L0,2 Z " fill="#000000" transform="translate(248,443)"/>
<path d="M0,0 L5,0 L5,2 L2,2 L2,5 L-3,5 L-3,7 L-11,7 L-11,5 L-5,5 L-5,2 L0,2 Z " fill="#000000" transform="translate(211,445)"/>
<path d="M0,0 L6,0 L6,2 L3,2 L3,5 L-2,5 L-2,7 L-10,7 L-10,5 L-5,5 L-5,2 L0,2 Z " fill="#000000" transform="translate(360,445)"/>
<path d="M0,0 L8,0 L8,3 L13,3 L13,5 L18,5 L18,8 L10,8 L10,5 L5,5 L5,3 L0,3 Z " fill="#000000" transform="translate(106,447)"/>
<path d="M0,0 L8,0 L8,3 L14,3 L14,5 L19,5 L19,8 L11,8 L11,5 L6,5 L6,3 L0,3 Z " fill="#000000" transform="translate(255,447)"/>
<path d="M0,0 L8,0 L8,3 L3,3 L3,5 L-7,5 L-7,8 L-31,8 L-31,78 L-34,78 L-34,8 L-55,8 L-55,5 L-68,5 L-68,3 L-52,3 L-52,5 L-10,5 L-10,3 L0,3 Z " fill="#000000" transform="translate(192,452)"/>
<path d="M0,0 L8,0 L8,3 L3,3 L3,5 L-8,5 L-8,8 L-31,8 L-31,78 L-34,78 L-34,8 L-58,8 L-58,5 L-68,5 L-68,3 L-55,3 L-55,5 L-10,5 L-10,3 L0,3 Z " fill="#000000" transform="translate(342,452)"/>
<path d="M0,0 L3,0 L3,3 L0,3 Z " fill="#000000" transform="translate(11,457)"/>
<path d="M0,0 L3,0 L3,3 L0,3 Z " fill="#000000" transform="translate(48,457)"/>
<path d="M0,0 L2,0 L2,3 L0,3 Z " fill="#000000" transform="translate(85,457)"/>
<path d="M0,0 L2,0 L2,3 L0,3 Z " fill="#000000" transform="translate(122,457)"/>
<path d="M0,0 L3,0 L3,3 L0,3 Z " fill="#000000" transform="translate(195,457)"/>
<path d="M0,0 L3,0 L3,3 L0,3 Z " fill="#000000" transform="translate(234,457)"/>
<path d="M0,0 L3,0 L3,3 L0,3 Z " fill="#000000" transform="translate(271,457)"/>
<path d="M0,0 L2,0 L2,3 L0,3 Z " fill="#000000" transform="translate(345,457)"/>
<path d="M0,0 L3,0 L3,3 L0,3 Z " fill="#000000" transform="translate(381,457)"/>
<path d="M0,0 L2,0 L2,3 L0,3 Z " fill="#000000" transform="translate(421,457)"/>
<path d="M0,0 L2,0 L2,3 L0,3 Z " fill="#000000" transform="translate(458,457)"/>
<path d="M0,0 L3,0 L3,2 L0,2 Z " fill="#000000" transform="translate(11,494)"/>
<path d="M0,0 L3,0 L3,2 L0,2 Z " fill="#000000" transform="translate(48,494)"/>
<path d="M0,0 L2,0 L2,2 L0,2 Z " fill="#000000" transform="translate(85,494)"/>
<path d="M0,0 L2,0 L2,2 L0,2 Z " fill="#000000" transform="translate(122,494)"/>
<path d="M0,0 L3,0 L3,2 L0,2 Z " fill="#000000" transform="translate(195,494)"/>
<path d="M0,0 L3,0 L3,2 L0,2 Z " fill="#000000" transform="translate(234,494)"/>
<path d="M0,0 L3,0 L3,2 L0,2 Z " fill="#000000" transform="translate(271,494)"/>
<path d="M0,0 L2,0 L2,2 L0,2 Z " fill="#000000" transform="translate(345,494)"/>
<path d="M0,0 L3,0 L3,2 L0,2 Z " fill="#000000" transform="translate(381,494)"/>
<path d="M0,0 L2,0 L2,2 L0,2 Z " fill="#000000" transform="translate(421,494)"/>
<path d="M0,0 L2,0 L2,2 L0,2 Z " fill="#000000" transform="translate(458,494)"/>
<path d="M0,0 L3,0 L3,2 L0,2 Z " fill="#000000" transform="translate(11,528)"/>
<path d="M0,0 L3,0 L3,2 L0,2 Z " fill="#000000" transform="translate(48,528)"/>
<path d="M0,0 L2,0 L2,2 L0,2 Z " fill="#000000" transform="translate(85,528)"/>
<path d="M0,0 L2,0 L2,2 L0,2 Z " fill="#000000" transform="translate(122,528)"/>
<path d="M0,0 L3,0 L3,2 L0,2 Z " fill="#000000" transform="translate(195,528)"/>
<path d="M0,0 L3,0 L3,2 L0,2 Z " fill="#000000" transform="translate(234,528)"/>
<path d="M0,0 L3,0 L3,2 L0,2 Z " fill="#000000" transform="translate(271,528)"/>
<path d="M0,0 L2,0 L2,2 L0,2 Z " fill="#000000" transform="translate(345,528)"/>
<path d="M0,0 L3,0 L3,2 L0,2 Z " fill="#000000" transform="translate(381,528)"/>
<path d="M0,0 L2,0 L2,2 L0,2 Z " fill="#000000" transform="translate(421,528)"/>
<path d="M0,0 L2,0 L2,2 L0,2 Z " fill="#000000" transform="translate(458,528)"/>
<path d="M0,0 L3,0 L3,2 L0,2 Z " fill="#000000" transform="translate(11,562)"/>
<path d="M0,0 L3,0 L3,2 L0,2 Z " fill="#000000" transform="translate(48,562)"/>
<path d="M0,0 L2,0 L2,2 L0,2 Z " fill="#000000" transform="translate(85,562)"/>
<path d="M0,0 L2,0 L2,2 L0,2 Z " fill="#000000" transform="translate(122,562)"/>
<path d="M0,0 L3,0 L3,2 L0,2 Z " fill="#000000" transform="translate(158,562)"/>
<path d="M0,0 L3,0 L3,2 L0,2 Z " fill="#000000" transform="translate(195,562)"/>
<path d="M0,0 L3,0 L3,2 L0,2 Z " fill="#000000" transform="translate(234,562)"/>
<path d="M0,0 L3,0 L3,2 L0,2 Z " fill="#000000" transform="translate(271,562)"/>
<path d="M0,0 L3,0 L3,2 L0,2 Z " fill="#000000" transform="translate(308,562)"/>
<path d="M0,0 L2,0 L2,2 L0,2 Z " fill="#000000" transform="translate(345,562)"/>
<path d="M0,0 L3,0 L3,2 L0,2 Z " fill="#000000" transform="translate(381,562)"/>
<path d="M0,0 L2,0 L2,2 L0,2 Z " fill="#000000" transform="translate(421,562)"/>
<path d="M0,0 L2,0 L2,2 L0,2 Z " fill="#000000" transform="translate(458,562)"/>
</svg>
