<?xml version="1.0" encoding="UTF-8"?>
<!-- Generator: visioncortex VTracer 0.6.12 -->
<svg version="1.1" xmlns="http://www.w3.org/2000/svg" width="282" height="342">
<path d="M0,0 L3,0 L3,2 L0,2 Z " fill="#000000" transform="translate(11,11)"/>
<path d="M0,0 L3,0 L3,2 L0,2 Z " fill="#000000" transform="translate(53,11)"/>
<path d="M0,0 L3,0 L3,2 L0,2 Z " fill="#000000" transform="translate(95,11)"/>
<path d="M0,0 L4,0 L4,2 L0,2 Z " fill="#000000" transform="translate(137,11)"/>
<path d="M0,0 L3,0 L3,2 L0,2 Z " fill="#000000" transform="translate(180,11)"/>
<path d="M0,0 L3,0 L3,2 L0,2 Z " fill="#000000" transform="translate(222,11)"/>
<path d="M0,0 L3,0 L3,2 L0,2 Z " fill="#000000" transform="translate(267,11)"/>
<path d="M0,0 L3,0 L3,2 L0,2 Z " fill="#000000" transform="translate(11,50)"/>
<path d="M0,0 L3,0 L3,89 L0,89 Z " fill="#000000" transform="translate(53,50)"/>
<path d="M0,0 L3,0 L3,2 L0,2 Z " fill="#000000" transform="translate(95,50)"/>
<path d="M0,0 L4,0 L4,2 L0,2 Z " fill="#000000" transform="translate(137,50)"/>
<path d="M0,0 L3,0 L3,2 L0,2 Z " fill="#000000" transform="translate(180,50)"/>
<path d="M0,0 L3,0 L3,89 L0,89 Z " fill="#000000" transform="translate(222,50)"/>
<path d="M0,0 L3,0 L3,2 L0,2 Z " fill="#000000" transform="translate(267,50)"/>
<path d="M0,0 L3,0 L3,3 L0,3 Z " fill="#000000" transform="translate(11,91)"/>
<path d="M0,0 L3,0 L3,3 L0,3 Z " fill="#000000" transform="translate(95,91)"/>
<path d="M0,0 L4,0 L4,3 L0,3 Z " fill="#000000" transform="translate(137,91)"/>
<path d="M0,0 L3,0 L3,3 L0,3 Z " fill="#000000" transform="translate(180,91)"/>
<path d="M0,0 L3,0 L3,3 L0,3 Z " fill="#000000" transform="translate(267,91)"/>
<path d="M0,0 L3,0 L3,3 L0,3 Z " fill="#000000" transform="translate(11,130)"/>
<path d="M0,0 L3,0 L3,9 L0,9 Z " fill="#000000" transform="translate(95,130)"/>
<path d="M0,0 L4,0 L4,9 L0,9 Z " fill="#000000" transform="translate(137,130)"/>
<path d="M0,0 L3,0 L3,9 L0,9 Z " fill="#000000" transform="translate(180,130)"/>
<path d="M0,0 L3,0 L3,3 L0,3 Z " fill="#000000" transform="translate(267,130)"/>
<path d="M0,0 L3,0 L3,5 L0,5 Z " fill="#000000" transform="translate(56,139)"/>
<path d="M0,0 L3,0 L3,5 L0,5 Z " fill="#000000" transform="translate(92,139)"/>
<path d="M0,0 L3,0 L3,5 L0,5 Z " fill="#000000" transform="translate(98,139)"/>
<path d="M0,0 L3,0 L3,5 L0,5 Z " fill="#000000" transform="translate(134,139)"/>
<path d="M0,0 L3,0 L3,5 L0,5 Z " fill="#000000" transform="translate(141,139)"/>
<path d="M0,0 L3,0 L3,5 L0,5 Z " fill="#000000" transform="translate(177,139)"/>
<path d="M0,0 L3,0 L3,5 L0,5 Z " fill="#000000" transform="translate(183,139)"/>
<path d="M0,0 L3,0 L3,5 L0,5 Z " fill="#000000" transform="translate(219,139)"/>
<path d="M0,0 L3,0 L3,3 L0,3 Z " fill="#000000" transform="translate(59,144)"/>
<path d="M0,0 L3,0 L3,3 L0,3 Z " fill="#000000" transform="translate(89,144)"/>
<path d="M0,0 L3,0 L3,3 L0,3 Z " fill="#000000" transform="translate(101,144)"/>
<path d="M0,0 L3,0 L3,3 L0,3 Z " fill="#000000" transform="translate(131,144)"/>
<path d="M0,0 L3,0 L3,3 L0,3 Z " fill="#000000" transform="translate(144,144)"/>
<path d="M0,0 L3,0 L3,3 L0,3 Z " fill="#000000" transform="translate(174,144)"/>
<path d="M0,0 L3,0 L3,3 L0,3 Z " fill="#000000" transform="translate(186,144)"/>
<path d="M0,0 L3,0 L3,3 L0,3 Z " fill="#000000" transform="translate(216,144)"/>
<path d="M0,0 L6,0 L6,3 L0,3 Z " fill="#000000" transform="translate(62,147)"/>
<path d="M0,0 L6,0 L6,3 L0,3 Z " fill="#000000" transform="translate(83,147)"/>
<path d="M0,0 L6,0 L6,3 L0,3 Z " fill="#000000" transform="translate(104,147)"/>
<path d="M0,0 L6,0 L6,3 L0,3 Z " fill="#000000" transform="translate(125,147)"/>
<path d="M0,0 L6,0 L6,3 L0,3 Z " fill="#000000" transform="translate(147,147)"/>
<path d="M0,0 L6,0 L6,3 L0,3 Z " fill="#000000" transform="translate(168,147)"/>
<path d="M0,0 L6,0 L6,3 L0,3 Z " fill="#000000" transform="translate(189,147)"/>
<path d="M0,0 L6,0 L6,3 L0,3 Z " fill="#000000" transform="translate(210,147)"/>
<path d="M0,0 L15,0 L15,2 L0,2 Z " fill="#000000" transform="translate(68,150)"/>
<path d="M0,0 L15,0 L15,2 L0,2 Z " fill="#000000" transform="translate(110,150)"/>
<path d="M0,0 L15,0 L15,2 L0,2 Z " fill="#000000" transform="translate(153,150)"/>
<path d="M0,0 L15,0 L15,2 L0,2 Z " fill="#000000" transform="translate(195,150)"/>
<path d="M0,0 L3,0 L3,3 L0,3 Z " fill="#000000" transform="translate(11,169)"/>
<path d="M0,0 L3,0 L3,3 L0,3 Z " fill="#000000" transform="translate(53,169)"/>
<path d="M0,0 L3,0 L3,3 L0,3 Z " fill="#000000" transform="translate(95,169)"/>
<path d="M0,0 L4,0 L4,3 L0,3 Z " fill="#000000" transform="translate(137,169)"/>
<path d="M0,0 L3,0 L3,3 L0,3 Z " fill="#000000" transform="translate(180,169)"/>
<path d="M0,0 L3,0 L3,3 L0,3 Z " fill="#000000" transform="translate(222,169)"/>
<path d="M0,0 L3,0 L3,3 L0,3 Z " fill="#000000" transform="translate(267,169)"/>
<path d="M0,0 L15,0 L15,2 L0,2 Z " fill="#000000" transform="translate(68,189)"/>
<path d="M0,0 L15,0 L15,2 L0,2 Z " fill="#000000" transform="translate(110,189)"/>
<path d="M0,0 L15,0 L15,2 L0,2 Z " fill="#000000" transform="translate(153,189)"/>
<path d="M0,0 L15,0 L15,2 L0,2 Z " fill="#000000" transform="translate(195,189)"/>
<path d="M0,0 L6,0 L6,3 L0,3 Z " fill="#000000" transform="translate(62,191)"/>
<path d="M0,0 L6,0 L6,3 L0,3 Z " fill="#000000" transform="translate(83,191)"/>
<path d="M0,0 L6,0 L6,3 L0,3 Z " fill="#000000" transform="translate(104,191)"/>
<path d="M0,0 L6,0 L6,3 L0,3 Z " fill="#000000" transform="translate(125,191)"/>
<path d="M0,0 L6,0 L6,3 L0,3 Z " fill="#000000" transform="translate(147,191)"/>
<path d="M0,0 L6,0 L6,3 L0,3 Z " fill="#000000" transform="translate(168,191)"/>
<path d="M0,0 L6,0 L6,3 L0,3 Z " fill="#000000" transform="translate(189,191)"/>
<path d="M0,0 L6,0 L6,3 L0,3 Z " fill="#000000" transform="translate(210,191)"/>
<path d="M0,0 L3,0 L3,3 L0,3 Z " fill="#000000" transform="translate(59,194)"/>
<path d="M0,0 L3,0 L3,3 L0,3 Z " fill="#000000" transform="translate(89,194)"/>
<path d="M0,0 L3,0 L3,3 L0,3 Z " fill="#000000" transform="translate(101,194)"/>
<path d="M0,0 L3,0 L3,3 L0,3 Z " fill="#000000" transform="translate(131,194)"/>
<path d="M0,0 L3,0 L3,3 L0,3 Z " fill="#000000" transform="translate(144,194)"/>
<path d="M0,0 L3,0 L3,3 L0,3 Z " fill="#000000" transform="translate(174,194)"/>
<path d="M0,0 L3,0 L3,3 L0,3 Z " fill="#000000" transform="translate(186,194)"/>
<path d="M0,0 L3,0 L3,3 L0,3 Z " fill="#000000" transform="translate(216,194)"/>
<path d="M0,0 L3,0 L3,5 L0,5 Z " fill="#000000" transform="translate(56,197)"/>
<path d="M0,0 L3,0 L3,5 L0,5 Z " fill="#000000" transform="translate(92,197)"/>
<path d="M0,0 L3,0 L3,5 L0,5 Z " fill="#000000" transform="translate(98,197)"/>
<path d="M0,0 L3,0 L3,5 L0,5 Z " fill="#000000" transform="translate(134,197)"/>
<path d="M0,0 L3,0 L3,5 L0,5 Z " fill="#000000" transform="translate(141,197)"/>
<path d="M0,0 L3,0 L3,5 L0,5 Z " fill="#000000" transform="translate(177,197)"/>
<path d="M0,0 L3,0 L3,5 L0,5 Z " fill="#000000" transform="translate(183,197)"/>
<path d="M0,0 L3,0 L3,5 L0,5 Z " fill="#000000" transform="translate(219,197)"/>
<path d="M0,0 L3,0 L3,87 L0,87 Z " fill="#000000" transform="translate(53,202)"/>
<path d="M0,0 L3,0 L3,9 L0,9 Z " fill="#000000" transform="translate(95,202)"/>
<path d="M0,0 L4,0 L4,87 L0,87 Z " fill="#000000" transform="translate(137,202)"/>
<path d="M0,0 L3,0 L3,9 L0,9 Z " fill="#000000" transform="translate(180,202)"/>
<path d="M0,0 L3,0 L3,87 L0,87 Z " fill="#000000" transform="translate(222,202)"/>
<path d="M0,0 L3,0 L3,3 L0,3 Z " fill="#000000" transform="translate(11,208)"/>
<path d="M0,0 L3,0 L3,3 L0,3 Z " fill="#000000" transform="translate(267,208)"/>
<path d="M0,0 L3,0 L3,3 L0,3 Z " fill="#000000" transform="translate(11,247)"/>
<path d="M0,0 L3,0 L3,3 L0,3 Z " fill="#000000" transform="translate(95,247)"/>
<path d="M0,0 L3,0 L3,3 L0,3 Z " fill="#000000" transform="translate(180,247)"/>
<path d="M0,0 L3,0 L3,3 L0,3 Z " fill="#000000" transform="translate(267,247)"/>
<path d="M0,0 L3,0 L3,3 L0,3 Z " fill="#000000" transform="translate(11,286)"/>
<path d="M0,0 L3,0 L3,3 L0,3 Z " fill="#000000" transform="translate(95,286)"/>
<path d="M0,0 L3,0 L3,3 L0,3 Z " fill="#000000" transform="translate(180,286)"/>
<path d="M0,0 L3,0 L3,3 L0,3 Z " fill="#000000" transform="translate(267,286)"/>
<path d="M0,0 L3,0 L3,2 L0,2 Z " fill="#000000" transform="translate(11,328)"/>
<path d="M0,0 L3,0 L3,2 L0,2 Z " fill="#000000" transform="translate(53,328)"/>
<path d="M0,0 L3,0 L3,2 L0,2 Z " fill="#000000" transform="translate(95,328)"/>
<path d="M0,0 L4,0 L4,2 L0,2 Z " fill="#000000" transform="translate(137,328)"/>
<path d="M0,0 L3,0 L3,2 L0,2 Z " fill="#000000" transform="translate(180,328)"/>
<path d="M0,0 L3,0 L3,2 L0,2 Z " fill="#000000" transform="translate(222,328)"/>
<path d="M0,0 L3,0 L3,2 L0,2 Z " fill="#000000" transform="translate(267,328)"/>
</svg>
