<?xml version="1.0" encoding="UTF-8"?>
<!-- Generator: visioncortex VTracer 0.6.12 -->
<svg version="1.1" xmlns="http://www.w3.org/2000/svg" width="282" height="342">
<path d="M0,0 L3,0 L3,2 L0,2 Z " fill="#000000" transform="translate(11,11)"/>
<path d="M0,0 L3,0 L3,2 L0,2 Z " fill="#000000" transform="translate(53,11)"/>
<path d="M0,0 L3,0 L3,2 L0,2 Z " fill="#000000" transform="translate(98,11)"/>
<path d="M0,0 L3,0 L3,2 L0,2 Z " fill="#000000" transform="translate(141,11)"/>
<path d="M0,0 L3,0 L3,2 L0,2 Z " fill="#000000" transform="translate(183,11)"/>
<path d="M0,0 L3,0 L3,2 L0,2 Z " fill="#000000" transform="translate(225,11)"/>
<path d="M0,0 L3,0 L3,2 L0,2 Z " fill="#000000" transform="translate(267,11)"/>
<path d="M0,0 L3,0 L3,3 L0,3 Z " fill="#000000" transform="translate(11,52)"/>
<path d="M0,0 L3,0 L3,3 L0,3 Z " fill="#000000" transform="translate(53,52)"/>
<path d="M0,0 L3,0 L3,3 L0,3 Z " fill="#000000" transform="translate(98,52)"/>
<path d="M0,0 L3,0 L3,3 L0,3 Z " fill="#000000" transform="translate(141,52)"/>
<path d="M0,0 L3,0 L3,3 L0,3 Z " fill="#000000" transform="translate(183,52)"/>
<path d="M0,0 L3,0 L3,81 L0,81 Z " fill="#000000" transform="translate(225,52)"/>
<path d="M0,0 L3,0 L3,3 L0,3 Z " fill="#000000" transform="translate(267,52)"/>
<path d="M0,0 L3,0 L3,3 L0,3 Z " fill="#000000" transform="translate(11,91)"/>
<path d="M0,0 L3,0 L3,3 L0,3 Z " fill="#000000" transform="translate(53,91)"/>
<path d="M0,0 L3,0 L3,3 L0,3 Z " fill="#000000" transform="translate(98,91)"/>
<path d="M0,0 L3,0 L3,3 L0,3 Z " fill="#000000" transform="translate(141,91)"/>
<path d="M0,0 L3,0 L3,3 L0,3 Z " fill="#000000" transform="translate(183,91)"/>
<path d="M0,0 L3,0 L3,3 L0,3 Z " fill="#000000" transform="translate(267,91)"/>
<path d="M0,0 L3,0 L3,3 L0,3 Z " fill="#000000" transform="translate(177,122)"/>
<path d="M0,0 L3,0 L3,6 L0,6 Z " fill="#000000" transform="translate(180,125)"/>
<path d="M0,0 L3,0 L3,2 L0,2 Z " fill="#000000" transform="translate(11,131)"/>
<path d="M0,0 L3,0 L3,2 L0,2 Z " fill="#000000" transform="translate(53,131)"/>
<path d="M0,0 L3,0 L3,2 L0,2 Z " fill="#000000" transform="translate(98,131)"/>
<path d="M0,0 L3,0 L3,2 L0,2 Z " fill="#000000" transform="translate(141,131)"/>
<path d="M0,0 L3,0 L3,5 L0,5 Z " fill="#000000" transform="translate(183,131)"/>
<path d="M0,0 L3,0 L3,2 L0,2 Z " fill="#000000" transform="translate(267,131)"/>
<path d="M0,0 L3,0 L3,6 L0,6 Z " fill="#000000" transform="translate(186,136)"/>
<path d="M0,0 L3,0 L3,5 L0,5 Z " fill="#000000" transform="translate(189,142)"/>
<path d="M0,0 L3,0 L3,6 L0,6 Z " fill="#000000" transform="translate(192,147)"/>
<path d="M0,0 L24,0 L24,3 L3,3 L3,20 L18,20 L18,22 L3,22 L3,42 L-21,42 L-21,39 L0,39 Z " fill="#000000" transform="translate(98,150)"/>
<path d="M0,0 L3,0 L3,5 L0,5 Z " fill="#000000" transform="translate(195,153)"/>
<path d="M0,0 L3,0 L3,6 L0,6 Z " fill="#000000" transform="translate(198,158)"/>
<path d="M0,0 L3,0 L3,2 L0,2 Z " fill="#000000" transform="translate(11,170)"/>
<path d="M0,0 L3,0 L3,2 L0,2 Z " fill="#000000" transform="translate(53,170)"/>
<path d="M0,0 L28,0 L28,2 L0,2 Z " fill="#000000" transform="translate(131,170)"/>
<path d="M0,0 L3,0 L3,6 L6,6 L6,11 L3,11 L3,8 L-24,8 L-24,6 L0,6 Z " fill="#000000" transform="translate(201,164)"/>
<path d="M0,0 L3,0 L3,2 L0,2 Z " fill="#000000" transform="translate(267,170)"/>
<path d="M0,0 L3,0 L3,6 L0,6 Z " fill="#000000" transform="translate(207,175)"/>
<path d="M0,0 L3,0 L3,5 L0,5 Z " fill="#000000" transform="translate(210,181)"/>
<path d="M0,0 L3,0 L3,6 L0,6 Z " fill="#000000" transform="translate(213,186)"/>
<path d="M0,0 L3,0 L3,6 L0,6 Z " fill="#000000" transform="translate(216,192)"/>
<path d="M0,0 L3,0 L3,5 L0,5 Z " fill="#000000" transform="translate(219,198)"/>
<path d="M0,0 L3,0 L3,6 L0,6 Z " fill="#000000" transform="translate(222,203)"/>
<path d="M0,0 L3,0 L3,2 L0,2 Z " fill="#000000" transform="translate(11,209)"/>
<path d="M0,0 L3,0 L3,2 L0,2 Z " fill="#000000" transform="translate(53,209)"/>
<path d="M0,0 L3,0 L3,2 L0,2 Z " fill="#000000" transform="translate(98,209)"/>
<path d="M0,0 L3,0 L3,2 L0,2 Z " fill="#000000" transform="translate(141,209)"/>
<path d="M0,0 L3,0 L3,2 L0,2 Z " fill="#000000" transform="translate(183,209)"/>
<path d="M0,0 L3,0 L3,83 L0,83 Z " fill="#000000" transform="translate(225,209)"/>
<path d="M0,0 L3,0 L3,2 L0,2 Z " fill="#000000" transform="translate(267,209)"/>
<path d="M0,0 L3,0 L3,2 L0,2 Z " fill="#000000" transform="translate(11,251)"/>
<path d="M0,0 L3,0 L3,2 L0,2 Z " fill="#000000" transform="translate(53,251)"/>
<path d="M0,0 L3,0 L3,2 L0,2 Z " fill="#000000" transform="translate(98,251)"/>
<path d="M0,0 L3,0 L3,2 L0,2 Z " fill="#000000" transform="translate(141,251)"/>
<path d="M0,0 L3,0 L3,2 L0,2 Z " fill="#000000" transform="translate(183,251)"/>
<path d="M0,0 L3,0 L3,2 L0,2 Z " fill="#000000" transform="translate(267,251)"/>
<path d="M0,0 L3,0 L3,2 L0,2 Z " fill="#000000" transform="translate(11,290)"/>
<path d="M0,0 L3,0 L3,2 L0,2 Z " fill="#000000" transform="translate(53,290)"/>
<path d="M0,0 L3,0 L3,2 L0,2 Z " fill="#000000" transform="translate(98,290)"/>
<path d="M0,0 L3,0 L3,2 L0,2 Z " fill="#000000" transform="translate(141,290)"/>
<path d="M0,0 L3,0 L3,2 L0,2 Z " fill="#000000" transform="translate(183,290)"/>
<path d="M0,0 L3,0 L3,2 L0,2 Z " fill="#000000" transform="translate(267,290)"/>
<path d="M0,0 L3,0 L3,2 L0,2 Z " fill="#000000" transform="translate(11,329)"/>
<path d="M0,0 L3,0 L3,2 L0,2 Z " fill="#000000" transform="translate(53,329)"/>
<path d="M0,0 L3,0 L3,2 L0,2 Z " fill="#000000" transform="translate(98,329)"/>
<path d="M0,0 L3,0 L3,2 L0,2 Z " fill="#000000" transform="translate(141,329)"/>
<path d="M0,0 L3,0 L3,2 L0,2 Z " fill="#000000" transform="translate(183,329)"/>
<path d="M0,0 L3,0 L3,2 L0,2 Z " fill="#000000" transform="translate(225,329)"/>
<path d="M0,0 L3,0 L3,2 L0,2 Z " fill="#000000" transform="translate(267,329)"/>
</svg>
