<?xml version="1.0" encoding="UTF-8"?>
<!-- Generator: visioncortex VTracer 0.6.12 -->
<svg version="1.1" xmlns="http://www.w3.org/2000/svg" width="541" height="283">
<path d="M0,0 L3,0 L3,3 L0,3 Z " fill="#000000" transform="translate(33,28)"/>
<path d="M0,0 L3,0 L3,3 L0,3 Z " fill="#000000" transform="translate(83,28)"/>
<path d="M0,0 L3,0 L3,3 L0,3 Z " fill="#000000" transform="translate(126,28)"/>
<path d="M0,0 L3,0 L3,3 L0,3 Z " fill="#000000" transform="translate(176,28)"/>
<path d="M0,0 L4,0 L4,3 L0,3 Z " fill="#000000" transform="translate(222,28)"/>
<path d="M0,0 L3,0 L3,3 L0,3 Z " fill="#000000" transform="translate(269,28)"/>
<path d="M0,0 L4,0 L4,3 L0,3 Z " fill="#000000" transform="translate(315,28)"/>
<path d="M0,0 L4,0 L4,3 L0,3 Z " fill="#000000" transform="translate(365,28)"/>
<path d="M0,0 L3,0 L3,3 L0,3 Z " fill="#000000" transform="translate(412,28)"/>
<path d="M0,0 L3,0 L3,3 L0,3 Z " fill="#000000" transform="translate(459,28)"/>
<path d="M0,0 L3,0 L3,3 L0,3 Z " fill="#000000" transform="translate(505,28)"/>
<path d="M0,0 L3,0 L3,3 L0,3 Z " fill="#000000" transform="translate(33,71)"/>
<path d="M0,0 L3,0 L3,3 L0,3 Z " fill="#000000" transform="translate(83,71)"/>
<path d="M0,0 L3,0 L3,3 L0,3 Z " fill="#000000" transform="translate(129,71)"/>
<path d="M0,0 L3,0 L3,3 L0,3 Z " fill="#000000" transform="translate(176,71)"/>
<path d="M0,0 L4,0 L4,3 L0,3 Z " fill="#000000" transform="translate(222,71)"/>
<path d="M0,0 L3,0 L3,3 L0,3 Z " fill="#000000" transform="translate(269,71)"/>
<path d="M0,0 L3,0 L3,3 L0,3 Z " fill="#000000" transform="translate(319,71)"/>
<path d="M0,0 L4,0 L4,3 L0,3 Z " fill="#000000" transform="translate(365,71)"/>
<path d="M0,0 L3,0 L3,3 L0,3 Z " fill="#000000" transform="translate(412,71)"/>
<path d="M0,0 L3,0 L3,3 L0,3 Z " fill="#000000" transform="translate(459,71)"/>
<path d="M0,0 L3,0 L3,3 L0,3 Z " fill="#000000" transform="translate(505,71)"/>
<path d="M0,0 L3,0 L3,3 L7,3 L7,6 L3,6 L3,15 L0,15 Z " fill="#000000" transform="translate(239,80)"/>
<path d="M0,0 L10,0 L10,3 L0,3 Z " fill="#000000" transform="translate(246,80)"/>
<path d="M0,0 L3,0 L3,12 L0,12 Z " fill="#000000" transform="translate(256,83)"/>
<path d="M0,0 L3,0 L3,13 L0,13 Z " fill="#000000" transform="translate(236,95)"/>
<path d="M0,0 L4,0 L4,13 L0,13 Z " fill="#000000" transform="translate(252,95)"/>
<path d="M0,0 L3,0 L3,3 L0,3 Z " fill="#000000" transform="translate(33,114)"/>
<path d="M0,0 L3,0 L3,3 L0,3 Z " fill="#000000" transform="translate(83,114)"/>
<path d="M0,0 L3,0 L3,3 L0,3 Z " fill="#000000" transform="translate(129,114)"/>
<path d="M0,0 L3,0 L3,3 L0,3 Z " fill="#000000" transform="translate(176,114)"/>
<path d="M0,0 L4,0 L4,3 L0,3 Z " fill="#000000" transform="translate(222,114)"/>
<path d="M0,0 L100,0 L100,3 L3,3 L3,77 L7,77 L7,80 L10,80 L10,83 L13,83 L13,86 L193,86 L193,89 L13,89 L13,92 L10,92 L10,95 L7,95 L7,98 L-3,98 L-3,95 L-7,95 L-7,92 L-10,92 L-10,89 L-186,89 L-186,86 L-10,86 L-10,83 L-7,83 L-7,80 L-3,80 L-3,77 L0,77 Z " fill="#000000" transform="translate(269,114)"/>
<path d="M0,0 L3,0 L3,3 L0,3 Z " fill="#000000" transform="translate(412,114)"/>
<path d="M0,0 L3,0 L3,3 L0,3 Z " fill="#000000" transform="translate(459,114)"/>
<path d="M0,0 L3,0 L3,3 L0,3 Z " fill="#000000" transform="translate(505,114)"/>
<path d="M0,0 L3,0 L3,3 L0,3 Z " fill="#000000" transform="translate(33,157)"/>
<path d="M0,0 L3,0 L3,3 L0,3 Z " fill="#000000" transform="translate(83,157)"/>
<path d="M0,0 L3,0 L3,3 L0,3 Z " fill="#000000" transform="translate(129,157)"/>
<path d="M0,0 L3,0 L3,3 L0,3 Z " fill="#000000" transform="translate(176,157)"/>
<path d="M0,0 L3,0 L3,3 L0,3 Z " fill="#000000" transform="translate(319,157)"/>
<path d="M0,0 L4,0 L4,3 L0,3 Z " fill="#000000" transform="translate(365,157)"/>
<path d="M0,0 L3,0 L3,3 L0,3 Z " fill="#000000" transform="translate(412,157)"/>
<path d="M0,0 L3,0 L3,3 L0,3 Z " fill="#000000" transform="translate(459,157)"/>
<path d="M0,0 L3,0 L3,3 L0,3 Z " fill="#000000" transform="translate(505,157)"/>
<path d="M0,0 L4,0 L4,3 L0,3 Z " fill="#000000" transform="translate(222,160)"/>
<path d="M0,0 L3,0 L3,3 L0,3 Z " fill="#000000" transform="translate(33,200)"/>
<path d="M0,0 L3,0 L3,3 L0,3 Z " fill="#000000" transform="translate(505,200)"/>
<path d="M0,0 L3,0 L3,3 L0,3 Z " fill="#000000" transform="translate(33,246)"/>
<path d="M0,0 L3,0 L3,3 L0,3 Z " fill="#000000" transform="translate(83,246)"/>
<path d="M0,0 L3,0 L3,3 L0,3 Z " fill="#000000" transform="translate(129,246)"/>
<path d="M0,0 L3,0 L3,3 L0,3 Z " fill="#000000" transform="translate(176,246)"/>
<path d="M0,0 L4,0 L4,3 L0,3 Z " fill="#000000" transform="translate(222,246)"/>
<path d="M0,0 L3,0 L3,3 L0,3 Z " fill="#000000" transform="translate(269,246)"/>
<path d="M0,0 L3,0 L3,3 L0,3 Z " fill="#000000" transform="translate(319,246)"/>
<path d="M0,0 L4,0 L4,3 L0,3 Z " fill="#000000" transform="translate(365,246)"/>
<path d="M0,0 L3,0 L3,3 L0,3 Z " fill="#000000" transform="translate(412,246)"/>
<path d="M0,0 L3,0 L3,3 L0,3 Z " fill="#000000" transform="translate(459,246)"/>
<path d="M0,0 L3,0 L3,3 L0,3 Z " fill="#000000" transform="translate(505,246)"/>
</svg>
