<?xml version="1.0" encoding="UTF-8"?>
<!-- Generator: visioncortex VTracer 0.6.12 -->
<svg version="1.1" xmlns="http://www.w3.org/2000/svg" width="328" height="304">
<path d="M0,0 L328,0 L328,3 L0,3 Z " fill="#000000" transform="translate(0,0)"/>
<path d="M0,0 L4,0 L4,4 L0,4 Z " fill="#000000" transform="translate(16,15)"/>
<path d="M0,0 L4,0 L4,4 L0,4 Z " fill="#000000" transform="translate(67,15)"/>
<path d="M0,0 L3,0 L3,4 L0,4 Z " fill="#000000" transform="translate(112,15)"/>
<path d="M0,0 L3,0 L3,4 L0,4 Z " fill="#000000" transform="translate(156,15)"/>
<path d="M0,0 L3,0 L3,4 L0,4 Z " fill="#000000" transform="translate(211,15)"/>
<path d="M0,0 L3,0 L3,4 L0,4 Z " fill="#000000" transform="translate(255,15)"/>
<path d="M0,0 L4,0 L4,4 L0,4 Z " fill="#000000" transform="translate(309,15)"/>
<path d="M0,0 L4,0 L4,19 L99,19 L99,22 L4,22 L4,66 L0,66 Z " fill="#000000" transform="translate(159,37)"/>
<path d="M0,0 L4,0 L4,3 L0,3 Z " fill="#000000" transform="translate(16,56)"/>
<path d="M0,0 L4,0 L4,3 L0,3 Z " fill="#000000" transform="translate(67,56)"/>
<path d="M0,0 L3,0 L3,3 L0,3 Z " fill="#000000" transform="translate(112,56)"/>
<path d="M0,0 L4,0 L4,3 L0,3 Z " fill="#000000" transform="translate(309,56)"/>
<path d="M0,0 L4,0 L4,163 L-75,163 L-75,160 L0,160 Z " fill="#000000" transform="translate(142,75)"/>
<path d="M0,0 L4,0 L4,3 L0,3 Z " fill="#000000" transform="translate(16,103)"/>
<path d="M0,0 L4,0 L4,3 L0,3 Z " fill="#000000" transform="translate(67,103)"/>
<path d="M0,0 L3,0 L3,3 L0,3 Z " fill="#000000" transform="translate(112,103)"/>
<path d="M0,0 L3,0 L3,3 L0,3 Z " fill="#000000" transform="translate(211,103)"/>
<path d="M0,0 L3,0 L3,3 L0,3 Z " fill="#000000" transform="translate(255,103)"/>
<path d="M0,0 L4,0 L4,3 L0,3 Z " fill="#000000" transform="translate(309,103)"/>
<path d="M0,0 L4,0 L4,66 L0,66 Z " fill="#000000" transform="translate(159,116)"/>
<path d="M0,0 L7,0 L7,4 L10,4 L10,7 L3,7 L3,4 L0,4 Z " fill="#000000" transform="translate(190,128)"/>
<path d="M0,0 L7,0 L7,3 L0,3 Z " fill="#000000" transform="translate(200,135)"/>
<path d="M0,0 L7,0 L7,3 L0,3 Z " fill="#000000" transform="translate(207,138)"/>
<path d="M0,0 L7,0 L7,3 L0,3 Z " fill="#000000" transform="translate(214,141)"/>
<path d="M0,0 L4,0 L4,3 L0,3 Z " fill="#000000" transform="translate(16,147)"/>
<path d="M0,0 L4,0 L4,3 L0,3 Z " fill="#000000" transform="translate(67,147)"/>
<path d="M0,0 L3,0 L3,3 L0,3 Z " fill="#000000" transform="translate(112,147)"/>
<path d="M0,0 L7,0 L7,3 L41,3 L41,6 L-7,6 L-7,10 L-14,10 L-14,6 L-55,6 L-55,3 L0,3 Z " fill="#000000" transform="translate(221,144)"/>
<path d="M0,0 L4,0 L4,3 L0,3 Z " fill="#000000" transform="translate(309,147)"/>
<path d="M0,0 L3,0 L3,3 L0,3 Z " fill="#000000" transform="translate(204,154)"/>
<path d="M0,0 L7,0 L7,3 L0,3 Z " fill="#000000" transform="translate(197,157)"/>
<path d="M0,0 L7,0 L7,3 L3,3 L3,6 L-3,6 L-3,3 L0,3 Z " fill="#000000" transform="translate(190,160)"/>
<path d="M0,0 L4,0 L4,3 L0,3 Z " fill="#000000" transform="translate(16,191)"/>
<path d="M0,0 L4,0 L4,3 L0,3 Z " fill="#000000" transform="translate(67,191)"/>
<path d="M0,0 L3,0 L3,3 L0,3 Z " fill="#000000" transform="translate(112,191)"/>
<path d="M0,0 L3,0 L3,3 L0,3 Z " fill="#000000" transform="translate(211,191)"/>
<path d="M0,0 L3,0 L3,3 L0,3 Z " fill="#000000" transform="translate(255,191)"/>
<path d="M0,0 L4,0 L4,3 L0,3 Z " fill="#000000" transform="translate(309,191)"/>
<path d="M0,0 L4,0 L4,66 L0,66 Z " fill="#000000" transform="translate(159,194)"/>
<path d="M0,0 L4,0 L4,3 L0,3 Z " fill="#000000" transform="translate(16,235)"/>
<path d="M0,0 L85,0 L85,3 L0,3 Z " fill="#000000" transform="translate(166,235)"/>
<path d="M0,0 L3,0 L3,3 L0,3 Z " fill="#000000" transform="translate(255,235)"/>
<path d="M0,0 L4,0 L4,3 L0,3 Z " fill="#000000" transform="translate(309,235)"/>
<path d="M0,0 L4,0 L4,3 L0,3 Z " fill="#000000" transform="translate(16,282)"/>
<path d="M0,0 L4,0 L4,3 L0,3 Z " fill="#000000" transform="translate(67,282)"/>
<path d="M0,0 L3,0 L3,3 L0,3 Z " fill="#000000" transform="translate(112,282)"/>
<path d="M0,0 L3,0 L3,3 L0,3 Z " fill="#000000" transform="translate(156,282)"/>
<path d="M0,0 L3,0 L3,3 L0,3 Z " fill="#000000" transform="translate(211,282)"/>
<path d="M0,0 L3,0 L3,3 L0,3 Z " fill="#000000" transform="translate(255,282)"/>
<path d="M0,0 L4,0 L4,3 L0,3 Z " fill="#000000" transform="translate(309,282)"/>
<path d="M0,0 L328,0 L328,4 L0,4 Z " fill="#000000" transform="translate(0,298)"/>
</svg>
