<?xml version="1.0" encoding="UTF-8"?>
<!-- Generator: visioncortex VTracer 0.6.12 -->
<svg version="1.1" xmlns="http://www.w3.org/2000/svg" width="690" height="262">
<path d="M0,0 L3,0 L3,3 L0,3 Z " fill="#000000" transform="translate(28,20)"/>
<path d="M0,0 L3,0 L3,3 L0,3 Z " fill="#000000" transform="translate(72,20)"/>
<path d="M0,0 L4,0 L4,3 L0,3 Z " fill="#000000" transform="translate(116,20)"/>
<path d="M0,0 L3,0 L3,3 L0,3 Z " fill="#000000" transform="translate(161,20)"/>
<path d="M0,0 L3,0 L3,3 L0,3 Z " fill="#000000" transform="translate(208,20)"/>
<path d="M0,0 L3,0 L3,3 L0,3 Z " fill="#000000" transform="translate(252,20)"/>
<path d="M0,0 L3,0 L3,3 L0,3 Z " fill="#000000" transform="translate(296,20)"/>
<path d="M0,0 L3,0 L3,3 L0,3 Z " fill="#000000" transform="translate(340,20)"/>
<path d="M0,0 L4,0 L4,3 L0,3 Z " fill="#000000" transform="translate(384,20)"/>
<path d="M0,0 L6,0 L6,3 L0,3 Z " fill="#000000" transform="translate(429,20)"/>
<path d="M0,0 L3,0 L3,3 L0,3 Z " fill="#000000" transform="translate(476,20)"/>
<path d="M0,0 L3,0 L3,3 L0,3 Z " fill="#000000" transform="translate(520,20)"/>
<path d="M0,0 L3,0 L3,3 L0,3 Z " fill="#000000" transform="translate(564,20)"/>
<path d="M0,0 L4,0 L4,3 L0,3 Z " fill="#000000" transform="translate(608,20)"/>
<path d="M0,0 L6,0 L6,3 L0,3 Z " fill="#000000" transform="translate(653,20)"/>
<path d="M0,0 L3,0 L3,3 L0,3 Z " fill="#000000" transform="translate(28,60)"/>
<path d="M0,0 L540,0 L540,129 L0,129 Z M3,3 L3,126 L89,126 L89,3 Z M92,3 L92,126 L180,126 L180,3 Z M183,3 L183,126 L268,126 L268,3 Z M271,3 L271,126 L360,126 L360,3 Z M363,3 L363,126 L448,126 L448,3 Z M451,3 L451,126 L536,126 L536,3 Z " fill="#000000" transform="translate(72,60)"/>
<path d="M0,0 L6,0 L6,3 L0,3 Z " fill="#000000" transform="translate(653,60)"/>
<path d="M0,0 L3,0 L3,3 L0,3 Z " fill="#000000" transform="translate(28,101)"/>
<path d="M0,0 L6,0 L6,3 L0,3 Z " fill="#000000" transform="translate(653,101)"/>
<path d="M0,0 L3,0 L3,3 L0,3 Z " fill="#000000" transform="translate(28,142)"/>
<path d="M0,0 L6,0 L6,3 L0,3 Z " fill="#000000" transform="translate(653,142)"/>
<path d="M0,0 L3,0 L3,3 L0,3 Z " fill="#000000" transform="translate(28,186)"/>
<path d="M0,0 L6,0 L6,3 L0,3 Z " fill="#000000" transform="translate(653,186)"/>
<path d="M0,0 L3,0 L3,3 L0,3 Z " fill="#000000" transform="translate(28,227)"/>
<path d="M0,0 L3,0 L3,3 L0,3 Z " fill="#000000" transform="translate(72,227)"/>
<path d="M0,0 L4,0 L4,3 L0,3 Z " fill="#000000" transform="translate(116,227)"/>
<path d="M0,0 L3,0 L3,3 L0,3 Z " fill="#000000" transform="translate(161,227)"/>
<path d="M0,0 L3,0 L3,3 L0,3 Z " fill="#000000" transform="translate(208,227)"/>
<path d="M0,0 L3,0 L3,3 L0,3 Z " fill="#000000" transform="translate(252,227)"/>
<path d="M0,0 L3,0 L3,3 L0,3 Z " fill="#000000" transform="translate(296,227)"/>
<path d="M0,0 L3,0 L3,3 L0,3 Z " fill="#000000" transform="translate(340,227)"/>
<path d="M0,0 L4,0 L4,3 L0,3 Z " fill="#000000" transform="translate(384,227)"/>
<path d="M0,0 L6,0 L6,3 L0,3 Z " fill="#000000" transform="translate(429,227)"/>
<path d="M0,0 L3,0 L3,3 L0,3 Z " fill="#000000" transform="translate(476,227)"/>
<path d="M0,0 L3,0 L3,3 L0,3 Z " fill="#000000" transform="translate(520,227)"/>
<path d="M0,0 L3,0 L3,3 L0,3 Z " fill="#000000" transform="translate(564,227)"/>
<path d="M0,0 L4,0 L4,3 L0,3 Z " fill="#000000" transform="translate(608,227)"/>
<path d="M0,0 L6,0 L6,3 L0,3 Z " fill="#000000" transform="translate(653,227)"/>
</svg>
