<?xml version="1.0" encoding="UTF-8"?>
<!-- Generator: visioncortex VTracer 0.6.12 -->
<svg version="1.1" xmlns="http://www.w3.org/2000/svg" width="244" height="343">
<path d="M0,0 L3,0 L3,3 L0,3 Z " fill="#000000" transform="translate(15,14)"/>
<path d="M0,0 L3,0 L3,3 L0,3 Z " fill="#000000" transform="translate(57,14)"/>
<path d="M0,0 L3,0 L3,3 L0,3 Z " fill="#000000" transform="translate(102,14)"/>
<path d="M0,0 L3,0 L3,3 L0,3 Z " fill="#000000" transform="translate(143,14)"/>
<path d="M0,0 L3,0 L3,3 L0,3 Z " fill="#000000" transform="translate(185,14)"/>
<path d="M0,0 L3,0 L3,3 L0,3 Z " fill="#000000" transform="translate(227,14)"/>
<path d="M0,0 L3,0 L3,3 L0,3 Z " fill="#000000" transform="translate(15,53)"/>
<path d="M0,0 L3,0 L3,3 L0,3 Z " fill="#000000" transform="translate(185,53)"/>
<path d="M0,0 L3,0 L3,3 L0,3 Z " fill="#000000" transform="translate(227,53)"/>
<path d="M0,0 L3,0 L3,2 L0,2 Z " fill="#000000" transform="translate(57,56)"/>
<path d="M0,0 L3,0 L3,2 L0,2 Z " fill="#000000" transform="translate(99,56)"/>
<path d="M0,0 L3,0 L3,58 L24,58 L24,60 L6,60 L6,63 L-3,63 L-3,60 L-20,60 L-20,58 L0,58 Z " fill="#000000" transform="translate(143,56)"/>
<path d="M0,0 L3,0 L3,2 L0,2 Z " fill="#000000" transform="translate(15,92)"/>
<path d="M0,0 L3,0 L3,2 L0,2 Z " fill="#000000" transform="translate(185,92)"/>
<path d="M0,0 L3,0 L3,2 L0,2 Z " fill="#000000" transform="translate(227,92)"/>
<path d="M0,0 L3,0 L3,3 L0,3 Z " fill="#000000" transform="translate(57,97)"/>
<path d="M0,0 L3,0 L3,3 L0,3 Z " fill="#000000" transform="translate(99,97)"/>
<path d="M0,0 L6,0 L6,3 L0,3 Z " fill="#000000" transform="translate(134,119)"/>
<path d="M0,0 L6,0 L6,3 L0,3 Z " fill="#000000" transform="translate(149,119)"/>
<path d="M0,0 L3,0 L3,3 L0,3 Z " fill="#000000" transform="translate(131,122)"/>
<path d="M0,0 L3,0 L3,3 L0,3 Z " fill="#000000" transform="translate(155,122)"/>
<path d="M0,0 L3,0 L3,5 L0,5 Z " fill="#000000" transform="translate(128,125)"/>
<path d="M0,0 L3,0 L3,5 L0,5 Z " fill="#000000" transform="translate(158,125)"/>
<path d="M0,0 L3,0 L3,3 L0,3 Z " fill="#000000" transform="translate(96,127)"/>
<path d="M0,0 L3,0 L3,6 L0,6 Z " fill="#000000" transform="translate(99,130)"/>
<path d="M0,0 L2,0 L2,8 L0,8 Z " fill="#000000" transform="translate(126,130)"/>
<path d="M0,0 L3,0 L3,8 L0,8 Z " fill="#000000" transform="translate(161,130)"/>
<path d="M0,0 L3,0 L3,3 L0,3 Z " fill="#000000" transform="translate(15,133)"/>
<path d="M0,0 L3,0 L3,3 L0,3 Z " fill="#000000" transform="translate(185,133)"/>
<path d="M0,0 L3,0 L3,3 L0,3 Z " fill="#000000" transform="translate(227,133)"/>
<path d="M0,0 L3,0 L3,2 L0,2 Z " fill="#000000" transform="translate(57,136)"/>
<path d="M0,0 L3,0 L3,5 L0,5 Z " fill="#000000" transform="translate(102,136)"/>
<path d="M0,0 L3,0 L3,6 L0,6 Z " fill="#000000" transform="translate(128,138)"/>
<path d="M0,0 L3,0 L3,6 L0,6 Z " fill="#000000" transform="translate(158,138)"/>
<path d="M0,0 L3,0 L3,6 L0,6 Z " fill="#000000" transform="translate(105,141)"/>
<path d="M0,0 L3,0 L3,3 L0,3 Z " fill="#000000" transform="translate(131,144)"/>
<path d="M0,0 L3,0 L3,3 L0,3 Z " fill="#000000" transform="translate(155,144)"/>
<path d="M0,0 L3,0 L3,5 L0,5 Z " fill="#000000" transform="translate(108,147)"/>
<path d="M0,0 L6,0 L6,2 L0,2 Z " fill="#000000" transform="translate(134,147)"/>
<path d="M0,0 L6,0 L6,2 L0,2 Z " fill="#000000" transform="translate(149,147)"/>
<path d="M0,0 L9,0 L9,3 L0,3 Z " fill="#000000" transform="translate(140,149)"/>
<path d="M0,0 L3,0 L3,6 L6,6 L6,11 L9,11 L9,17 L12,17 L12,22 L15,22 L15,28 L17,28 L17,33 L15,33 L15,31 L9,31 L9,33 L3,33 L3,36 L-3,36 L-3,39 L-9,39 L-9,42 L-15,42 L-15,36 L-18,36 L-18,31 L-21,31 L-21,25 L-24,25 L-24,20 L-27,20 L-27,14 L-21,14 L-21,11 L-15,11 L-15,8 L-9,8 L-9,6 L-3,6 L-3,3 L0,3 Z " fill="#000000" transform="translate(111,152)"/>
<path d="M0,0 L3,0 L3,2 L0,2 Z " fill="#000000" transform="translate(15,172)"/>
<path d="M0,0 L3,0 L3,2 L0,2 Z " fill="#000000" transform="translate(185,172)"/>
<path d="M0,0 L3,0 L3,2 L0,2 Z " fill="#000000" transform="translate(227,172)"/>
<path d="M0,0 L3,0 L3,3 L0,3 Z " fill="#000000" transform="translate(57,174)"/>
<path d="M0,0 L3,0 L3,6 L0,6 Z " fill="#000000" transform="translate(128,185)"/>
<path d="M0,0 L3,0 L3,5 L0,5 Z " fill="#000000" transform="translate(131,191)"/>
<path d="M0,0 L3,0 L3,6 L0,6 Z " fill="#000000" transform="translate(134,196)"/>
<path d="M0,0 L3,0 L3,5 L0,5 Z " fill="#000000" transform="translate(137,202)"/>
<path d="M0,0 L3,0 L3,6 L0,6 Z " fill="#000000" transform="translate(140,207)"/>
<path d="M0,0 L3,0 L3,3 L0,3 Z " fill="#000000" transform="translate(15,210)"/>
<path d="M0,0 L3,0 L3,3 L0,3 Z " fill="#000000" transform="translate(185,210)"/>
<path d="M0,0 L3,0 L3,3 L0,3 Z " fill="#000000" transform="translate(227,210)"/>
<path d="M0,0 L3,0 L3,3 L0,3 Z " fill="#000000" transform="translate(57,213)"/>
<path d="M0,0 L3,0 L3,3 L0,3 Z " fill="#000000" transform="translate(99,213)"/>
<path d="M0,0 L3,0 L3,77 L0,77 Z " fill="#000000" transform="translate(143,213)"/>
<path d="M0,0 L3,0 L3,3 L0,3 Z " fill="#000000" transform="translate(15,249)"/>
<path d="M0,0 L3,0 L3,3 L0,3 Z " fill="#000000" transform="translate(57,249)"/>
<path d="M0,0 L3,0 L3,3 L0,3 Z " fill="#000000" transform="translate(102,249)"/>
<path d="M0,0 L3,0 L3,3 L0,3 Z " fill="#000000" transform="translate(185,249)"/>
<path d="M0,0 L3,0 L3,3 L0,3 Z " fill="#000000" transform="translate(227,249)"/>
<path d="M0,0 L3,0 L3,3 L0,3 Z " fill="#000000" transform="translate(15,287)"/>
<path d="M0,0 L3,0 L3,3 L0,3 Z " fill="#000000" transform="translate(57,287)"/>
<path d="M0,0 L3,0 L3,3 L0,3 Z " fill="#000000" transform="translate(102,287)"/>
<path d="M0,0 L3,0 L3,3 L0,3 Z " fill="#000000" transform="translate(185,287)"/>
<path d="M0,0 L3,0 L3,3 L0,3 Z " fill="#000000" transform="translate(227,287)"/>
<path d="M0,0 L3,0 L3,3 L0,3 Z " fill="#000000" transform="translate(15,326)"/>
<path d="M0,0 L3,0 L3,3 L0,3 Z " fill="#000000" transform="translate(57,326)"/>
<path d="M0,0 L3,0 L3,3 L0,3 Z " fill="#000000" transform="translate(102,326)"/>
<path d="M0,0 L3,0 L3,3 L0,3 Z " fill="#000000" transform="translate(143,326)"/>
<path d="M0,0 L3,0 L3,3 L0,3 Z " fill="#000000" transform="translate(185,326)"/>
<path d="M0,0 L3,0 L3,3 L0,3 Z " fill="#000000" transform="translate(227,326)"/>
</svg>
